<svg width="261" height="200" viewBox="0 0 261 200" fill="none" xmlns="http://www.w3.org/2000/svg">
<mask id="mask0_207_4913" style="mask-type:alpha" maskUnits="userSpaceOnUse" x="0" y="0" width="261" height="200">
<rect x="0.360352" width="260.14" height="200" rx="12" fill="#F8FAFF"/>
</mask>
<g mask="url(#mask0_207_4913)">
<path d="M37.3804 -34.9999L37.3804 96.0001" stroke="url(#paint0_linear_207_4913)" stroke-opacity="0.2" stroke-width="1.5" stroke-linecap="round" stroke-dasharray="2 5"/>
<path d="M147.439 220L147.439 164" stroke="url(#paint1_linear_207_4913)" stroke-opacity="0.2" stroke-width="1.5" stroke-linecap="round" stroke-dasharray="2 5"/>
<path d="M37.3804 97L250.495 97" stroke="#2F50D7" stroke-opacity="0.2" stroke-width="1.5" stroke-linecap="round" stroke-dasharray="2 5"/>
<rect x="251.495" y="74.0001" width="87.0468" height="59" rx="8" stroke="#6A7DCB" stroke-opacity="0.2" stroke-width="1.5" stroke-linecap="round" stroke-dasharray="2 5"/>
<ellipse cx="37.3806" cy="97" rx="4.00215" ry="4" fill="#CDD7FF"/>
<g filter="url(#filter0_d_207_4913)">
<path d="M90.6304 47.1773C90.6304 45.4224 92.0537 43.9998 93.8095 43.9998H201.106C202.862 43.9998 204.285 45.4224 204.285 47.1773V171.892C204.285 173.647 202.862 175.07 201.106 175.07H93.8095C92.0537 175.07 90.6304 173.647 90.6304 171.892V47.1773Z" fill="#FCFDFF"/>
</g>
<path d="M99.9314 53.9089V58.9998H98.8545V53.9089H99.9314Z" fill="#A2B9DF"/>
<path d="M105.288 53.9089V58.9998H104.358L102.142 55.7956H102.105V58.9998H101.028V53.9089H101.973L104.171 57.1106H104.216V53.9089H105.288Z" fill="#A2B9DF"/>
<path d="M107.308 53.9089L108.539 57.7768H108.587L109.82 53.9089H111.014L109.258 58.9998H107.87L106.112 53.9089H107.308Z" fill="#A2B9DF"/>
<path d="M116.231 56.4544C116.231 57.0095 116.125 57.4818 115.915 57.8713C115.706 58.2607 115.421 58.5582 115.059 58.7637C114.699 58.9675 114.295 59.0694 113.846 59.0694C113.393 59.0694 112.987 58.9667 112.627 58.7612C112.267 58.5557 111.983 58.2582 111.774 57.8688C111.565 57.4793 111.46 57.0079 111.46 56.4544C111.46 55.8992 111.565 55.4269 111.774 55.0374C111.983 54.648 112.267 54.3514 112.627 54.1475C112.987 53.942 113.393 53.8393 113.846 53.8393C114.295 53.8393 114.699 53.942 115.059 54.1475C115.421 54.3514 115.706 54.648 115.915 55.0374C116.125 55.4269 116.231 55.8992 116.231 56.4544ZM115.139 56.4544C115.139 56.0947 115.085 55.7915 114.977 55.5445C114.871 55.2976 114.721 55.1104 114.527 54.9828C114.333 54.8552 114.106 54.7914 113.846 54.7914C113.585 54.7914 113.358 54.8552 113.164 54.9828C112.97 55.1104 112.819 55.2976 112.711 55.5445C112.605 55.7915 112.552 56.0947 112.552 56.4544C112.552 56.814 112.605 57.1172 112.711 57.3642C112.819 57.6111 112.97 57.7983 113.164 57.9259C113.358 58.0535 113.585 58.1173 113.846 58.1173C114.106 58.1173 114.333 58.0535 114.527 57.9259C114.721 57.7983 114.871 57.6111 114.977 57.3642C115.085 57.1172 115.139 56.814 115.139 56.4544Z" fill="#A2B9DF"/>
<path d="M118.315 53.9089V58.9998H117.239V53.9089H118.315Z" fill="#A2B9DF"/>
<path d="M123.906 55.6912H122.817C122.797 55.5504 122.756 55.4252 122.695 55.3159C122.633 55.2048 122.555 55.1104 122.458 55.0325C122.362 54.9546 122.251 54.8949 122.125 54.8535C122.001 54.8121 121.866 54.7914 121.72 54.7914C121.456 54.7914 121.226 54.8568 121.031 54.9877C120.835 55.117 120.683 55.3059 120.576 55.5545C120.468 55.8014 120.414 56.1014 120.414 56.4544C120.414 56.8173 120.468 57.1222 120.576 57.3691C120.685 57.616 120.838 57.8025 121.033 57.9284C121.229 58.0544 121.455 58.1173 121.712 58.1173C121.856 58.1173 121.99 58.0983 122.113 58.0602C122.237 58.0221 122.347 57.9665 122.443 57.8936C122.54 57.8191 122.619 57.7287 122.682 57.6227C122.747 57.5166 122.792 57.3956 122.817 57.2597L123.906 57.2647C123.878 57.4984 123.807 57.7238 123.694 57.9409C123.583 58.1563 123.433 58.3494 123.244 58.52C123.057 58.6891 122.833 58.8233 122.573 58.9227C122.314 59.0205 122.021 59.0694 121.695 59.0694C121.241 59.0694 120.834 58.9667 120.476 58.7612C120.12 58.5557 119.838 58.2582 119.631 57.8688C119.425 57.4793 119.322 57.0079 119.322 56.4544C119.322 55.8992 119.427 55.4269 119.635 55.0374C119.844 54.648 120.128 54.3514 120.486 54.1475C120.844 53.942 121.247 53.8393 121.695 53.8393C121.99 53.8393 122.264 53.8807 122.516 53.9636C122.769 54.0464 122.994 54.1674 123.19 54.3265C123.385 54.4839 123.544 54.677 123.667 54.9057C123.791 55.1344 123.871 55.3962 123.906 55.6912Z" fill="#A2B9DF"/>
<path d="M124.888 58.9998V53.9089H128.32V54.7963H125.965V56.0094H128.144V56.8968H125.965V58.1124H128.33V58.9998H124.888Z" fill="#A2B9DF"/>
<path fill-rule="evenodd" clip-rule="evenodd" d="M97.9824 66.2422C97.9824 65.913 98.2493 65.6461 98.5785 65.6461H116.859C117.188 65.6461 117.455 65.913 117.455 66.2422C117.455 66.5714 117.188 66.8383 116.859 66.8383H98.5785C98.2493 66.8383 97.9824 66.5714 97.9824 66.2422Z" fill="#C3D1F8"/>
<path fill-rule="evenodd" clip-rule="evenodd" d="M97.9824 135.352C97.9824 135.023 98.2493 134.756 98.5785 134.756H116.859C117.188 134.756 117.455 135.023 117.455 135.352C117.455 135.681 117.188 135.948 116.859 135.948H98.5785C98.2493 135.948 97.9824 135.681 97.9824 135.352Z" fill="#C3D1F8"/>
<path fill-rule="evenodd" clip-rule="evenodd" d="M97.9824 71.0085C97.9824 70.6793 98.2493 70.4124 98.5785 70.4124H125.601C125.931 70.4124 126.198 70.6793 126.198 71.0085C126.198 71.3377 125.931 71.6046 125.601 71.6046H98.5785C98.2493 71.6046 97.9824 71.3377 97.9824 71.0085Z" fill="#C3D1F8"/>
<path fill-rule="evenodd" clip-rule="evenodd" d="M97.9824 140.118C97.9824 139.789 98.2493 139.522 98.5785 139.522H125.601C125.931 139.522 126.198 139.789 126.198 140.118C126.198 140.447 125.931 140.714 125.601 140.714H98.5785C98.2493 140.714 97.9824 140.447 97.9824 140.118Z" fill="#C3D1F8"/>
<path fill-rule="evenodd" clip-rule="evenodd" d="M97.9824 83.7182C97.9824 83.389 98.2493 83.1221 98.5785 83.1221H111.295C111.624 83.1221 111.891 83.389 111.891 83.7182C111.891 84.0474 111.624 84.3143 111.295 84.3143H98.5785C98.2493 84.3143 97.9824 84.0474 97.9824 83.7182Z" fill="#C3D1F8"/>
<path fill-rule="evenodd" clip-rule="evenodd" d="M126.595 83.7182C126.595 83.389 126.862 83.1221 127.191 83.1221H141.498C141.827 83.1221 142.094 83.389 142.094 83.7182C142.094 84.0474 141.827 84.3143 141.498 84.3143H127.191C126.862 84.3143 126.595 84.0474 126.595 83.7182Z" fill="#C3D1F8"/>
<path fill-rule="evenodd" clip-rule="evenodd" d="M154.412 83.7182C154.412 83.389 154.679 83.1221 155.008 83.1221H157.393C157.722 83.1221 157.989 83.389 157.989 83.7182C157.989 84.0474 157.722 84.3143 157.393 84.3143H155.008C154.679 84.3143 154.412 84.0474 154.412 83.7182Z" fill="#C3D1F8"/>
<path fill-rule="evenodd" clip-rule="evenodd" d="M162.36 83.7182C162.36 83.389 162.627 83.1221 162.956 83.1221H165.34C165.67 83.1221 165.936 83.389 165.936 83.7182C165.936 84.0474 165.67 84.3143 165.34 84.3143H162.956C162.627 84.3143 162.36 84.0474 162.36 83.7182Z" fill="#C3D1F8"/>
<path fill-rule="evenodd" clip-rule="evenodd" d="M170.308 83.7182C170.308 83.389 170.575 83.1221 170.904 83.1221H173.289C173.618 83.1221 173.885 83.389 173.885 83.7182C173.885 84.0474 173.618 84.3143 173.289 84.3143H170.904C170.575 84.3143 170.308 84.0474 170.308 83.7182Z" fill="#C3D1F8"/>
<path fill-rule="evenodd" clip-rule="evenodd" d="M97.9824 78.1578C97.9824 77.8286 98.2493 77.5617 98.5785 77.5617H108.116C108.445 77.5617 108.712 77.8286 108.712 78.1578C108.712 78.487 108.445 78.7539 108.116 78.7539H98.5785C98.2493 78.7539 97.9824 78.487 97.9824 78.1578Z" fill="#6B72FB"/>
<path fill-rule="evenodd" clip-rule="evenodd" d="M126.595 78.1578C126.595 77.8286 126.862 77.5617 127.191 77.5617H136.729C137.058 77.5617 137.325 77.8286 137.325 78.1578C137.325 78.487 137.058 78.7539 136.729 78.7539H127.191C126.862 78.7539 126.595 78.487 126.595 78.1578Z" fill="#6B72FB"/>
<path fill-rule="evenodd" clip-rule="evenodd" d="M154.412 78.1578C154.412 77.8286 154.679 77.5617 155.008 77.5617H164.546C164.875 77.5617 165.142 77.8286 165.142 78.1578C165.142 78.487 164.875 78.7539 164.546 78.7539H155.008C154.679 78.7539 154.412 78.487 154.412 78.1578Z" fill="#6B72FB"/>
<path d="M169.314 53.5323C169.314 51.7774 170.738 50.3548 172.494 50.3548H193.158C194.914 50.3548 196.337 51.7774 196.337 53.5323V67.8308C196.337 69.5857 194.914 71.0083 193.158 71.0083H172.494C170.738 71.0083 169.314 69.5857 169.314 67.8308V53.5323Z" fill="#EAEFFF"/>
<path d="M98.5781 96.4277C98.5781 94.6728 100.001 93.2502 101.757 93.2502H193.158C194.914 93.2502 196.337 94.6728 196.337 96.4277V124.23C196.337 125.985 194.914 127.408 193.158 127.408H101.757C100.001 127.408 98.5781 125.985 98.5781 124.23V96.4277Z" fill="#EAEFFF"/>
<path fill-rule="evenodd" clip-rule="evenodd" d="M161.153 81.2921C161.396 81.3933 161.511 81.6724 161.41 81.9154L159.423 86.6815C159.321 86.9245 159.042 87.0394 158.799 86.9382C158.556 86.8369 158.441 86.5579 158.542 86.3149L160.529 81.5487C160.63 81.3058 160.91 81.1909 161.153 81.2921Z" fill="#EAEFFF"/>
<path fill-rule="evenodd" clip-rule="evenodd" d="M169.101 81.2921C169.344 81.3933 169.459 81.6724 169.357 81.9154L167.37 86.6815C167.269 86.9245 166.99 87.0394 166.747 86.9382C166.504 86.8369 166.389 86.5579 166.49 86.3149L168.477 81.5487C168.578 81.3058 168.857 81.1909 169.101 81.2921Z" fill="#EAEFFF"/>
<path fill-rule="evenodd" clip-rule="evenodd" d="M102.459 97.3413C102.459 97.0544 102.688 96.8218 102.969 96.8218H111.818C112.1 96.8218 112.328 97.0544 112.328 97.3413C112.328 97.6281 112.1 97.8607 111.818 97.8607H102.969C102.688 97.8607 102.459 97.6281 102.459 97.3413Z" fill="#9C75EE"/>
<path fill-rule="evenodd" clip-rule="evenodd" d="M121.628 96.9472C121.628 96.6603 121.866 96.4277 122.159 96.4277H128.888C129.182 96.4277 129.419 96.6603 129.419 96.9472C129.419 97.234 129.182 97.4666 128.888 97.4666H122.159C121.866 97.4666 121.628 97.234 121.628 96.9472Z" fill="#789AFF"/>
<path fill-rule="evenodd" clip-rule="evenodd" d="M138.819 97.3413C138.819 97.0544 139.046 96.8218 139.325 96.8218H150.78C151.059 96.8218 151.286 97.0544 151.286 97.3413C151.286 97.6281 151.059 97.8607 150.78 97.8607H139.325C139.046 97.8607 138.819 97.6281 138.819 97.3413Z" fill="#75D1EE"/>
<path fill-rule="evenodd" clip-rule="evenodd" d="M179.647 97.3413C179.647 97.0544 179.873 96.8218 180.152 96.8218H191.608C191.887 96.8218 192.113 97.0544 192.113 97.3413C192.113 97.6281 191.887 97.8607 191.608 97.8607H180.152C179.873 97.8607 179.647 97.6281 179.647 97.3413Z" fill="#EEA175"/>
<path fill-rule="evenodd" clip-rule="evenodd" d="M102.751 105.166C102.751 104.837 103.018 104.57 103.348 104.57H110.501C110.83 104.57 111.097 104.837 111.097 105.166C111.097 105.495 110.83 105.762 110.501 105.762H103.348C103.018 105.762 102.751 105.495 102.751 105.166Z" fill="#C3D1F8"/>
<path fill-rule="evenodd" clip-rule="evenodd" d="M121.031 105.166C121.031 104.837 121.298 104.57 121.627 104.57H126.396C126.725 104.57 126.992 104.837 126.992 105.166C126.992 105.495 126.725 105.762 126.396 105.762H121.627C121.298 105.762 121.031 105.495 121.031 105.166Z" fill="#C3D1F8"/>
<path fill-rule="evenodd" clip-rule="evenodd" d="M138.517 105.166C138.517 104.837 138.783 104.57 139.113 104.57H158.982C159.312 104.57 159.579 104.837 159.579 105.166C159.579 105.495 159.312 105.762 158.982 105.762H139.113C138.783 105.762 138.517 105.495 138.517 105.166Z" fill="#C3D1F8"/>
<path fill-rule="evenodd" clip-rule="evenodd" d="M138.517 122.642C138.517 122.313 138.783 122.046 139.113 122.046H152.624C152.953 122.046 153.22 122.313 153.22 122.642C153.22 122.971 152.953 123.238 152.624 123.238H139.113C138.783 123.238 138.517 122.971 138.517 122.642Z" fill="#C3D1F8"/>
<path fill-rule="evenodd" clip-rule="evenodd" d="M121.031 113.11C121.031 112.781 121.298 112.514 121.627 112.514H129.575C129.904 112.514 130.171 112.781 130.171 113.11C130.171 113.439 129.904 113.706 129.575 113.706H121.627C121.298 113.706 121.031 113.439 121.031 113.11Z" fill="#C3D1F8"/>
<path fill-rule="evenodd" clip-rule="evenodd" d="M138.517 113.11C138.517 112.781 138.783 112.514 139.113 112.514H171.699C172.028 112.514 172.295 112.781 172.295 113.11C172.295 113.439 172.028 113.706 171.699 113.706H139.113C138.783 113.706 138.517 113.439 138.517 113.11Z" fill="#C3D1F8"/>
<path fill-rule="evenodd" clip-rule="evenodd" d="M97.1875 109.138C97.1875 108.809 97.4544 108.542 97.7836 108.542L201.106 108.542C201.436 108.542 201.703 108.809 201.703 109.138C201.703 109.467 201.436 109.734 201.106 109.734L97.7836 109.734C97.4544 109.734 97.1875 109.467 97.1875 109.138Z" fill="white"/>
<path fill-rule="evenodd" clip-rule="evenodd" d="M97.1875 101.194C97.1875 100.865 97.4544 100.598 97.7836 100.598L201.106 100.598C201.436 100.598 201.703 100.865 201.703 101.194C201.703 101.524 201.436 101.79 201.106 101.79L97.7836 101.79C97.4544 101.79 97.1875 101.524 97.1875 101.194Z" fill="white"/>
<path fill-rule="evenodd" clip-rule="evenodd" d="M97.1875 117.876C97.1875 117.547 97.4544 117.28 97.7836 117.28L201.106 117.28C201.436 117.28 201.703 117.547 201.703 117.876C201.703 118.205 201.436 118.472 201.106 118.472L97.7836 118.472C97.4544 118.472 97.1875 118.205 97.1875 117.876Z" fill="white"/>
<path fill-rule="evenodd" clip-rule="evenodd" d="M116.858 91.0659C117.188 91.0659 117.455 91.3326 117.455 91.6616L117.455 117.876C117.455 118.205 117.188 118.471 116.858 118.471C116.529 118.471 116.262 118.205 116.262 117.876L116.262 91.6616C116.262 91.3326 116.529 91.0659 116.858 91.0659Z" fill="white"/>
<path fill-rule="evenodd" clip-rule="evenodd" d="M134.344 91.0659C134.674 91.0659 134.94 91.3326 134.94 91.6616L134.94 117.876C134.94 118.205 134.674 118.471 134.344 118.471C134.015 118.471 133.748 118.205 133.748 117.876L133.748 91.6616C133.748 91.3326 134.015 91.0659 134.344 91.0659Z" fill="white"/>
<path fill-rule="evenodd" clip-rule="evenodd" d="M176.467 91.0659C176.797 91.0659 177.063 91.3326 177.063 91.6616L177.063 133.763C177.063 134.092 176.797 134.359 176.467 134.359C176.138 134.359 175.871 134.092 175.871 133.763L175.871 91.6616C175.871 91.3326 176.138 91.0659 176.467 91.0659Z" fill="white"/>
<path fill-rule="evenodd" clip-rule="evenodd" d="M102.751 113.11C102.751 112.781 103.018 112.514 103.348 112.514H110.501C110.83 112.514 111.097 112.781 111.097 113.11C111.097 113.439 110.83 113.706 110.501 113.706H103.348C103.018 113.706 102.751 113.439 102.751 113.11Z" fill="#C3D1F8"/>
<path fill-rule="evenodd" clip-rule="evenodd" d="M183.82 105.166C183.82 104.837 184.087 104.57 184.416 104.57L189.98 104.57C190.309 104.57 190.576 104.837 190.576 105.166C190.576 105.495 190.309 105.762 189.98 105.762L184.416 105.762C184.087 105.762 183.82 105.495 183.82 105.166Z" fill="#98A2FF"/>
<path fill-rule="evenodd" clip-rule="evenodd" d="M183.82 113.904C183.82 113.575 184.087 113.308 184.416 113.308L189.98 113.308C190.309 113.308 190.576 113.575 190.576 113.904C190.576 114.233 190.309 114.5 189.98 114.5L184.416 114.5C184.087 114.5 183.82 114.233 183.82 113.904Z" fill="#98A2FF"/>
<path fill-rule="evenodd" clip-rule="evenodd" d="M183.82 122.642C183.82 122.313 184.087 122.046 184.416 122.046L189.98 122.046C190.309 122.046 190.576 122.313 190.576 122.642C190.576 122.971 190.309 123.238 189.98 123.238L184.416 123.238C184.087 123.238 183.82 122.971 183.82 122.642Z" fill="#6B72FB"/>
<path d="M180.792 106.321H181.091L181.093 105.998C181.698 105.955 182.045 105.622 182.047 105.149C182.045 104.648 181.632 104.42 181.197 104.317L181.104 104.293L181.109 103.488C181.335 103.527 181.481 103.663 181.503 103.866H182.007C181.999 103.417 181.646 103.09 181.112 103.039L181.114 102.711H180.815L180.813 103.039C180.284 103.093 179.903 103.417 179.904 103.884C179.904 104.299 180.199 104.537 180.675 104.66L180.802 104.692L180.796 105.546C180.544 105.506 180.362 105.362 180.343 105.107H179.828C179.848 105.636 180.212 105.95 180.793 105.998L180.792 106.321ZM181.095 105.546L181.101 104.771C181.358 104.846 181.522 104.945 181.523 105.145C181.522 105.354 181.354 105.503 181.095 105.546ZM180.805 104.217C180.61 104.155 180.432 104.052 180.435 103.852C180.436 103.67 180.573 103.529 180.81 103.488L180.805 104.217Z" fill="#98A2FF"/>
<path d="M180.792 115.059H181.091L181.093 114.736C181.698 114.693 182.045 114.36 182.047 113.887C182.045 113.387 181.632 113.158 181.197 113.055L181.104 113.031L181.109 112.226C181.335 112.265 181.481 112.401 181.503 112.604H182.007C181.999 112.155 181.646 111.828 181.112 111.777L181.114 111.449H180.815L180.813 111.777C180.284 111.831 179.903 112.155 179.904 112.622C179.904 113.037 180.199 113.275 180.675 113.398L180.802 113.43L180.796 114.284C180.544 114.244 180.362 114.1 180.343 113.845H179.828C179.848 114.374 180.212 114.688 180.793 114.736L180.792 115.059ZM181.095 114.284L181.101 113.509C181.358 113.584 181.522 113.683 181.523 113.883C181.522 114.092 181.354 114.241 181.095 114.284ZM180.805 112.955C180.61 112.893 180.432 112.79 180.435 112.59C180.436 112.408 180.573 112.267 180.81 112.226L180.805 112.955Z" fill="#98A2FF"/>
<path d="M180.792 123.797H181.091L181.093 123.474C181.698 123.431 182.045 123.098 182.047 122.625C182.045 122.124 181.632 121.896 181.197 121.793L181.104 121.769L181.109 120.964C181.335 121.003 181.481 121.139 181.503 121.342H182.007C181.999 120.893 181.646 120.566 181.112 120.515L181.114 120.187H180.815L180.813 120.515C180.284 120.569 179.903 120.893 179.904 121.36C179.904 121.775 180.199 122.013 180.675 122.136L180.802 122.168L180.796 123.022C180.544 122.982 180.362 122.838 180.343 122.583H179.828C179.848 123.112 180.212 123.426 180.793 123.474L180.792 123.797ZM181.095 123.022L181.101 122.247C181.358 122.322 181.522 122.421 181.523 122.621C181.522 122.83 181.354 122.979 181.095 123.022ZM180.805 121.693C180.61 121.631 180.432 121.528 180.435 121.328C180.436 121.146 180.573 121.005 180.81 120.964L180.805 121.693Z" fill="#6B72FB"/>
<path fill-rule="evenodd" clip-rule="evenodd" d="M172.547 138.987C171.233 139.749 170.01 140.405 169.561 140.61C169.262 140.746 168.908 140.614 168.772 140.315C168.635 140.015 168.767 139.662 169.067 139.525C169.546 139.307 171.134 138.449 172.682 137.525C173.023 136.334 173.948 135.118 175.604 134.816C175.821 134.776 176.02 134.753 176.192 134.756C176.325 134.759 176.606 134.776 176.819 134.981C176.948 135.104 177.022 135.268 177.033 135.439C177.043 135.594 177.001 135.722 176.963 135.807C176.891 135.97 176.772 136.11 176.671 136.215C176.263 136.641 175.42 137.224 174.511 137.8C174.262 137.958 174.003 138.119 173.739 138.279C173.677 138.767 173.758 139.153 173.883 139.359C173.941 139.456 173.996 139.493 174.031 139.507C174.062 139.52 174.128 139.537 174.258 139.498C175.694 139.061 176.855 138.219 177.229 137.878C177.386 137.734 177.608 137.686 177.811 137.75C178.014 137.815 178.167 137.982 178.212 138.19C178.297 138.577 178.523 138.898 178.829 138.983C179.134 139.068 179.828 139.007 181.067 137.878C182.166 136.875 183.334 136.665 184.345 136.941C185.316 137.207 186.08 137.905 186.469 138.615C186.53 138.726 186.652 138.831 186.9 138.903C187.155 138.976 187.496 138.997 187.896 138.964C188.697 138.897 189.589 138.627 190.177 138.359C191.052 137.96 191.65 137.177 191.821 136.865C191.966 136.6 192.287 136.486 192.567 136.599C192.847 136.713 192.998 137.018 192.918 137.309C192.851 137.554 192.885 137.848 193.11 138.05C193.354 138.27 193.981 138.536 195.453 138.312C195.778 138.263 196.082 138.486 196.131 138.812C196.181 139.137 195.957 139.441 195.632 139.49C194.033 139.733 192.954 139.513 192.312 138.936C192.176 138.813 192.067 138.681 191.981 138.545C191.63 138.878 191.191 139.207 190.672 139.443C189.98 139.759 188.954 140.072 187.995 140.151C187.516 140.191 187.017 140.175 186.572 140.048C186.121 139.919 185.683 139.66 185.424 139.188C185.173 138.731 184.658 138.263 184.03 138.091C183.441 137.93 182.69 138.011 181.87 138.758C180.55 139.962 179.432 140.387 178.51 140.131C177.981 139.984 177.619 139.643 177.383 139.267C176.73 139.726 175.746 140.291 174.605 140.638C174.255 140.744 173.902 140.743 173.578 140.609C173.258 140.478 173.023 140.242 172.862 139.974C172.689 139.688 172.588 139.347 172.547 138.987ZM176.202 135.95C176.201 135.951 176.195 135.95 176.185 135.948C176.197 135.949 176.202 135.95 176.202 135.95Z" fill="#C3D1F8"/>
</g>
<defs>
<filter id="filter0_d_207_4913" x="60.6304" y="17.9998" width="173.655" height="191.07" filterUnits="userSpaceOnUse" color-interpolation-filters="sRGB">
<feFlood flood-opacity="0" result="BackgroundImageFix"/>
<feColorMatrix in="SourceAlpha" type="matrix" values="0 0 0 0 0 0 0 0 0 0 0 0 0 0 0 0 0 0 127 0" result="hardAlpha"/>
<feOffset dy="4"/>
<feGaussianBlur stdDeviation="15"/>
<feComposite in2="hardAlpha" operator="out"/>
<feColorMatrix type="matrix" values="0 0 0 0 0.329412 0 0 0 0 0.435294 0 0 0 0 1 0 0 0 0.09 0"/>
<feBlend mode="normal" in2="BackgroundImageFix" result="effect1_dropShadow_207_4913"/>
<feBlend mode="normal" in="SourceGraphic" in2="effect1_dropShadow_207_4913" result="shape"/>
</filter>
<linearGradient id="paint0_linear_207_4913" x1="37.8804" y1="-34.9999" x2="37.8804" y2="96.0001" gradientUnits="userSpaceOnUse">
<stop stop-color="#2F50D7" stop-opacity="0"/>
<stop offset="1" stop-color="#2F50D7"/>
</linearGradient>
<linearGradient id="paint1_linear_207_4913" x1="146.939" y1="220" x2="146.939" y2="164" gradientUnits="userSpaceOnUse">
<stop stop-color="#2F50D7" stop-opacity="0"/>
<stop offset="1" stop-color="#2F50D7"/>
</linearGradient>
</defs>
</svg>
