<svg width="261" height="200" viewBox="0 0 261 200" fill="none" xmlns="http://www.w3.org/2000/svg">
<mask id="mask0_207_4843" style="mask-type:alpha" maskUnits="userSpaceOnUse" x="0" y="0" width="261" height="200">
<rect x="0.360352" width="260.14" height="200" rx="12" fill="#F8FAFF"/>
</mask>
<g mask="url(#mask0_207_4843)">
<path fill-rule="evenodd" clip-rule="evenodd" d="M182.164 56.3691C181.911 56.3691 181.661 56.3832 181.416 56.4105C181.037 56.4528 180.695 56.18 180.653 55.8014C180.611 55.4227 180.884 55.0815 181.263 55.0393C181.559 55.0064 181.859 54.9894 182.164 54.9894H183.097C183.479 54.9894 183.788 55.2983 183.788 55.6793C183.788 56.0603 183.479 56.3691 183.097 56.3691H182.164ZM187.074 55.6793C187.074 55.2983 187.383 54.9894 187.765 54.9894H189.631C190.013 54.9894 190.322 55.2983 190.322 55.6793C190.322 56.0603 190.013 56.3691 189.631 56.3691H187.765C187.383 56.3691 187.074 56.0603 187.074 55.6793ZM193.608 55.6793C193.608 55.2983 193.917 54.9894 194.299 54.9894H196.166C196.547 54.9894 196.856 55.2983 196.856 55.6793C196.856 56.0603 196.547 56.3691 196.166 56.3691H194.299C193.917 56.3691 193.608 56.0603 193.608 55.6793ZM200.143 55.6793C200.143 55.2983 200.452 54.9894 200.833 54.9894H202.7C203.081 54.9894 203.39 55.2983 203.39 55.6793C203.39 56.0603 203.081 56.3691 202.7 56.3691H200.833C200.452 56.3691 200.143 56.0603 200.143 55.6793ZM206.677 55.6793C206.677 55.2983 206.986 54.9894 207.367 54.9894H209.234C209.615 54.9894 209.924 55.2983 209.924 55.6793C209.924 56.0603 209.615 56.3691 209.234 56.3691H207.367C206.986 56.3691 206.677 56.0603 206.677 55.6793ZM213.211 55.6793C213.211 55.2983 213.52 54.9894 213.901 54.9894H215.768C216.149 54.9894 216.458 55.2983 216.458 55.6793C216.458 56.0603 216.149 56.3691 215.768 56.3691H213.901C213.52 56.3691 213.211 56.0603 213.211 55.6793ZM219.745 55.6793C219.745 55.2983 220.054 54.9894 220.435 54.9894H222.302C222.683 54.9894 222.992 55.2983 222.992 55.6793C222.992 56.0603 222.683 56.3691 222.302 56.3691H220.435C220.054 56.3691 219.745 56.0603 219.745 55.6793ZM226.279 55.6793C226.279 55.2983 226.588 54.9894 226.969 54.9894H228.836C229.217 54.9894 229.526 55.2983 229.526 55.6793C229.526 56.0603 229.217 56.3691 228.836 56.3691H226.969C226.588 56.3691 226.279 56.0603 226.279 55.6793ZM232.813 55.6793C232.813 55.2983 233.122 54.9894 233.503 54.9894H235.37C235.751 54.9894 236.06 55.2983 236.06 55.6793C236.06 56.0603 235.751 56.3691 235.37 56.3691H233.503C233.122 56.3691 232.813 56.0603 232.813 55.6793ZM239.347 55.6793C239.347 55.2983 239.656 54.9894 240.037 54.9894H241.904C242.285 54.9894 242.594 55.2983 242.594 55.6793C242.594 56.0603 242.285 56.3691 241.904 56.3691H240.037C239.656 56.3691 239.347 56.0603 239.347 55.6793ZM245.881 55.6793C245.881 55.2983 246.19 54.9894 246.571 54.9894H247.505C247.809 54.9894 248.11 55.0064 248.406 55.0393C248.785 55.0815 249.058 55.4227 249.016 55.8014C248.973 56.18 248.632 56.4528 248.253 56.4105C248.008 56.3832 247.758 56.3691 247.505 56.3691H246.571C246.19 56.3691 245.881 56.0603 245.881 55.6793ZM178.113 56.854C178.351 57.1517 178.302 57.5857 178.004 57.8235C177.614 58.1352 177.259 58.4898 176.947 58.8801C176.709 59.1779 176.275 59.2265 175.977 58.9888C175.679 58.751 175.63 58.3169 175.868 58.0192C176.244 57.5486 176.672 57.1211 177.143 56.7453C177.441 56.5076 177.875 56.5562 178.113 56.854ZM251.556 56.854C251.794 56.5562 252.228 56.5076 252.526 56.7453C252.997 57.1211 253.425 57.5486 253.801 58.0192C254.038 58.3169 253.99 58.751 253.692 58.9887C253.394 59.2265 252.96 59.1779 252.722 58.8801C252.41 58.4898 252.055 58.1352 251.665 57.8235C251.367 57.5857 251.318 57.1517 251.556 56.854ZM174.924 61.5278C175.303 61.57 175.575 61.9112 175.533 62.2898C175.506 62.5351 175.492 62.7846 175.492 63.0377V63.9794C175.492 64.3604 175.183 64.6692 174.802 64.6692C174.42 64.6692 174.111 64.3604 174.111 63.9794V63.0377C174.111 62.7334 174.128 62.4329 174.161 62.137C174.203 61.7583 174.545 61.4856 174.924 61.5278ZM254.745 61.5278C255.124 61.4856 255.465 61.7583 255.507 62.137C255.54 62.4329 255.557 62.7334 255.557 63.0377V63.9794C255.557 64.3604 255.248 64.6692 254.867 64.6692C254.486 64.6692 254.177 64.3604 254.177 63.9794V63.0377C254.177 62.7846 254.163 62.5351 254.136 62.2898C254.093 61.9112 254.366 61.57 254.745 61.5278ZM254.867 67.998C255.248 67.998 255.557 68.3069 255.557 68.6879V70.5713C255.557 70.9523 255.248 71.2611 254.867 71.2611C254.486 71.2611 254.177 70.9523 254.177 70.5713V68.6879C254.177 68.3069 254.486 67.998 254.867 67.998ZM174.802 67.998C175.183 67.998 175.492 68.3069 175.492 68.6879V70.5713C175.492 70.9523 175.183 71.2611 174.802 71.2611C174.42 71.2611 174.111 70.9523 174.111 70.5713V68.6879C174.111 68.3069 174.42 67.998 174.802 67.998ZM174.802 74.5899C175.183 74.5899 175.492 74.8988 175.492 75.2798V77.1632C175.492 77.5442 175.183 77.853 174.802 77.853C174.42 77.853 174.111 77.5442 174.111 77.1632V75.2798C174.111 74.8988 174.42 74.5899 174.802 74.5899ZM254.867 74.5899C255.248 74.5899 255.557 74.8988 255.557 75.2798V77.1632C255.557 77.5442 255.248 77.853 254.867 77.853C254.486 77.853 254.177 77.5442 254.177 77.1632V75.2798C254.177 74.8988 254.486 74.5899 254.867 74.5899ZM254.867 81.1818C255.248 81.1818 255.557 81.4907 255.557 81.8717V83.7551C255.557 84.1361 255.248 84.4449 254.867 84.4449C254.486 84.4449 254.177 84.1361 254.177 83.7551V81.8717C254.177 81.4907 254.486 81.1818 254.867 81.1818ZM174.802 81.1818C175.183 81.1818 175.492 81.4907 175.492 81.8717V83.7551C175.492 84.1361 175.183 84.4449 174.802 84.4449C174.42 84.4449 174.111 84.1361 174.111 83.7551V81.8717C174.111 81.4907 174.42 81.1818 174.802 81.1818ZM174.802 87.7737C175.183 87.7737 175.492 88.0826 175.492 88.4636V90.347C175.492 90.728 175.183 91.0368 174.802 91.0368C174.42 91.0368 174.111 90.728 174.111 90.347V88.4636C174.111 88.0826 174.42 87.7737 174.802 87.7737ZM254.867 87.7737C255.248 87.7737 255.557 88.0826 255.557 88.4636V90.347C255.557 90.728 255.248 91.0368 254.867 91.0368C254.486 91.0368 254.177 90.728 254.177 90.347V88.4636C254.177 88.0826 254.486 87.7737 254.867 87.7737ZM174.802 94.3656C175.183 94.3656 175.492 94.6745 175.492 95.0555V96.9389C175.492 97.3199 175.183 97.6287 174.802 97.6287C174.42 97.6287 174.111 97.3199 174.111 96.9389V95.0555C174.111 94.6745 174.42 94.3656 174.802 94.3656ZM254.867 94.3656C255.248 94.3656 255.557 94.6745 255.557 95.0555V96.9389C255.557 97.3199 255.248 97.6287 254.867 97.6287C254.486 97.6287 254.177 97.3199 254.177 96.9389V95.0555C254.177 94.6745 254.486 94.3656 254.867 94.3656ZM174.802 100.958C175.183 100.958 175.492 101.266 175.492 101.647V102.589C175.492 102.842 175.506 103.092 175.533 103.337C175.575 103.716 175.303 104.057 174.924 104.099C174.545 104.141 174.203 103.868 174.161 103.49C174.128 103.194 174.111 102.893 174.111 102.589V101.647C174.111 101.266 174.42 100.958 174.802 100.958ZM254.867 100.958C255.248 100.958 255.557 101.266 255.557 101.647V102.589C255.557 102.893 255.54 103.194 255.507 103.49C255.465 103.868 255.124 104.141 254.745 104.099C254.366 104.057 254.093 103.716 254.136 103.337C254.163 103.092 254.177 102.842 254.177 102.589V101.647C254.177 101.266 254.486 100.958 254.867 100.958ZM175.977 106.638C176.275 106.4 176.709 106.449 176.947 106.747C177.259 107.137 177.614 107.492 178.004 107.803C178.302 108.041 178.351 108.475 178.113 108.773C177.875 109.071 177.441 109.119 177.143 108.881C176.672 108.506 176.244 108.078 175.868 107.608C175.63 107.31 175.679 106.876 175.977 106.638ZM253.692 106.638C253.99 106.876 254.038 107.31 253.801 107.608C253.425 108.078 252.997 108.506 252.526 108.881C252.228 109.119 251.794 109.071 251.556 108.773C251.318 108.475 251.367 108.041 251.665 107.803C252.055 107.492 252.41 107.137 252.722 106.747C252.96 106.449 253.394 106.4 253.692 106.638ZM180.653 109.825C180.695 109.447 181.037 109.174 181.416 109.216C181.661 109.244 181.911 109.258 182.164 109.258H183.097C183.479 109.258 183.788 109.566 183.788 109.947C183.788 110.328 183.479 110.637 183.097 110.637H182.164C181.859 110.637 181.559 110.62 181.263 110.587C180.884 110.545 180.611 110.204 180.653 109.825ZM249.016 109.825C249.058 110.204 248.785 110.545 248.406 110.587C248.11 110.62 247.809 110.637 247.505 110.637H246.571C246.19 110.637 245.881 110.328 245.881 109.947C245.881 109.566 246.19 109.258 246.571 109.258H247.505C247.758 109.258 248.008 109.244 248.253 109.216C248.632 109.174 248.973 109.447 249.016 109.825ZM187.074 109.947C187.074 109.566 187.383 109.258 187.765 109.258H189.631C190.013 109.258 190.322 109.566 190.322 109.947C190.322 110.328 190.013 110.637 189.631 110.637H187.765C187.383 110.637 187.074 110.328 187.074 109.947ZM193.608 109.947C193.608 109.566 193.917 109.258 194.299 109.258H196.166C196.547 109.258 196.856 109.566 196.856 109.947C196.856 110.328 196.547 110.637 196.166 110.637H194.299C193.917 110.637 193.608 110.328 193.608 109.947ZM200.143 109.947C200.143 109.566 200.452 109.258 200.833 109.258H202.7C203.081 109.258 203.39 109.566 203.39 109.947C203.39 110.328 203.081 110.637 202.7 110.637H200.833C200.452 110.637 200.143 110.328 200.143 109.947ZM206.677 109.947C206.677 109.566 206.986 109.258 207.367 109.258H209.234C209.615 109.258 209.924 109.566 209.924 109.947C209.924 110.328 209.615 110.637 209.234 110.637H207.367C206.986 110.637 206.677 110.328 206.677 109.947ZM213.211 109.947C213.211 109.566 213.52 109.258 213.901 109.258H215.768C216.149 109.258 216.458 109.566 216.458 109.947C216.458 110.328 216.149 110.637 215.768 110.637H213.901C213.52 110.637 213.211 110.328 213.211 109.947ZM219.745 109.947C219.745 109.566 220.054 109.258 220.435 109.258H222.302C222.683 109.258 222.992 109.566 222.992 109.947C222.992 110.328 222.683 110.637 222.302 110.637H220.435C220.054 110.637 219.745 110.328 219.745 109.947ZM226.279 109.947C226.279 109.566 226.588 109.258 226.969 109.258H228.836C229.217 109.258 229.526 109.566 229.526 109.947C229.526 110.328 229.217 110.637 228.836 110.637H226.969C226.588 110.637 226.279 110.328 226.279 109.947ZM232.813 109.947C232.813 109.566 233.122 109.258 233.503 109.258H235.37C235.751 109.258 236.06 109.566 236.06 109.947C236.06 110.328 235.751 110.637 235.37 110.637H233.503C233.122 110.637 232.813 110.328 232.813 109.947ZM239.347 109.947C239.347 109.566 239.656 109.258 240.037 109.258H241.904C242.285 109.258 242.594 109.566 242.594 109.947C242.594 110.328 242.285 110.637 241.904 110.637H240.037C239.656 110.637 239.347 110.328 239.347 109.947Z" fill="url(#paint0_linear_207_4843)" fill-opacity="0.2"/>
<path fill-rule="evenodd" clip-rule="evenodd" d="M124.875 167.895C124.875 168.276 124.566 168.585 124.185 168.585L123.278 168.585C122.896 168.585 122.587 168.276 122.587 167.895C122.587 167.514 122.896 167.205 123.278 167.205L124.185 167.205C124.566 167.205 124.875 167.514 124.875 167.895ZM119.432 167.895C119.432 168.276 119.123 168.585 118.742 168.585L116.928 168.585C116.546 168.585 116.237 168.276 116.237 167.895C116.237 167.514 116.546 167.205 116.928 167.205L118.742 167.205C119.123 167.205 119.432 167.514 119.432 167.895ZM113.082 167.895C113.082 168.276 112.773 168.585 112.392 168.585L110.578 168.585C110.196 168.585 109.887 168.276 109.887 167.895C109.887 167.514 110.196 167.205 110.578 167.205L112.392 167.205C112.773 167.205 113.082 167.514 113.082 167.895ZM106.732 167.895C106.732 168.276 106.423 168.585 106.042 168.585L104.228 168.585C103.846 168.585 103.537 168.276 103.537 167.895C103.537 167.514 103.846 167.205 104.228 167.205L106.042 167.205C106.423 167.205 106.732 167.514 106.732 167.895ZM100.382 167.895C100.382 168.276 100.073 168.585 99.6918 168.585L97.8775 168.585C97.4963 168.585 97.1873 168.276 97.1873 167.895C97.1873 167.514 97.4963 167.205 97.8775 167.205L99.6918 167.205C100.073 167.205 100.382 167.514 100.382 167.895ZM94.032 167.895C94.032 168.276 93.723 168.585 93.3418 168.585L91.5275 168.585C91.1463 168.585 90.8373 168.276 90.8373 167.895C90.8373 167.514 91.1463 167.205 91.5275 167.205L93.3418 167.205C93.723 167.205 94.032 167.514 94.032 167.895ZM87.682 167.895C87.682 168.276 87.3729 168.585 86.9917 168.585L85.1774 168.585C84.7962 168.585 84.4872 168.276 84.4872 167.895C84.4872 167.514 84.7962 167.205 85.1774 167.205L86.9917 167.205C87.3729 167.205 87.682 167.514 87.682 167.895ZM81.3319 167.895C81.3319 168.276 81.0229 168.585 80.6417 168.585L78.8274 168.585C78.4462 168.585 78.1372 168.276 78.1372 167.895C78.1372 167.514 78.4462 167.205 78.8274 167.205L80.6417 167.205C81.0229 167.205 81.3319 167.514 81.3319 167.895ZM74.9819 167.895C74.9819 168.276 74.6729 168.585 74.2917 168.585L72.4774 168.585C72.0962 168.585 71.7872 168.276 71.7872 167.895C71.7872 167.514 72.0962 167.205 72.4774 167.205L74.2917 167.205C74.6729 167.205 74.9819 167.514 74.9819 167.895ZM68.6319 167.895C68.6319 168.276 68.3228 168.585 67.9416 168.585L66.1274 168.585C65.7462 168.585 65.4371 168.276 65.4371 167.895C65.4371 167.514 65.7462 167.205 66.1274 167.205L67.9416 167.205C68.3228 167.205 68.6319 167.514 68.6319 167.895ZM62.2818 167.895C62.2818 168.276 61.9728 168.585 61.5916 168.585L60.6845 168.585C60.351 168.585 60.0253 168.547 59.7119 168.476C59.3402 168.392 59.1074 168.022 59.1919 167.65C59.2764 167.279 59.6463 167.046 60.018 167.131C60.2316 167.179 60.4546 167.205 60.6845 167.205L61.5916 167.205C61.9728 167.205 62.2818 167.514 62.2818 167.895ZM57.2479 165.707C56.8762 165.792 56.5063 165.559 56.4218 165.188C56.3505 164.874 56.3131 164.549 56.3131 164.216L56.3131 163.296C56.3131 162.915 56.6221 162.606 57.0033 162.606C57.3845 162.606 57.6935 162.915 57.6935 163.296L57.6935 164.216C57.6935 164.445 57.7193 164.668 57.7679 164.882C57.8524 165.253 57.6196 165.623 57.2479 165.707ZM57.0033 124.894C57.3845 124.894 57.6935 125.203 57.6935 125.584L57.6935 126.504C57.6935 126.885 57.3845 127.194 57.0033 127.194C56.6221 127.194 56.3131 126.885 56.3131 126.504L56.3131 125.584C56.3131 125.203 56.6221 124.894 57.0033 124.894ZM57.0033 130.413C57.3845 130.413 57.6935 130.722 57.6935 131.103L57.6935 132.943C57.6935 133.324 57.3845 133.632 57.0033 133.632C56.6221 133.632 56.3131 133.324 56.3131 132.943L56.3131 131.103C56.3131 130.722 56.6221 130.413 57.0033 130.413ZM57.0033 136.852C57.3845 136.852 57.6935 137.161 57.6935 137.542L57.6935 139.381C57.6935 139.762 57.3845 140.071 57.0033 140.071C56.6221 140.071 56.3131 139.762 56.3131 139.381L56.3131 137.542C56.3131 137.161 56.6221 136.852 57.0033 136.852ZM57.0033 143.29C57.3845 143.29 57.6935 143.599 57.6935 143.98L57.6935 145.82C57.6935 146.201 57.3845 146.51 57.0033 146.51C56.6221 146.51 56.3131 146.201 56.3131 145.82L56.3131 143.98C56.3131 143.599 56.6221 143.29 57.0033 143.29ZM57.0033 149.729C57.3845 149.729 57.6935 150.038 57.6935 150.419L57.6935 152.258C57.6935 152.639 57.3845 152.948 57.0033 152.948C56.6221 152.948 56.3131 152.639 56.3131 152.258L56.3131 150.419C56.3131 150.038 56.6221 149.729 57.0033 149.729ZM57.0033 156.167C57.3845 156.167 57.6935 156.476 57.6935 156.857L57.6935 158.697C57.6935 159.078 57.3845 159.387 57.0033 159.387C56.6221 159.387 56.3131 159.078 56.3131 158.697L56.3131 156.857C56.3131 156.476 56.6221 156.167 57.0033 156.167Z" fill="url(#paint1_linear_207_4843)" fill-opacity="0.2"/>
<path fill-rule="evenodd" clip-rule="evenodd" d="M43.623 36.5127C43.8144 36.3139 44.1327 36.3139 44.3241 36.5127L47.5065 39.8181L50.6888 36.5127C50.8802 36.3139 51.1985 36.3139 51.3899 36.5127L54.6177 39.8653C54.7083 39.9594 54.7509 40.0725 54.7544 40.1844H55.2556C55.2589 40.0804 55.2963 39.975 55.375 39.8842L58.2441 36.573C58.4381 36.3492 58.7856 36.3492 58.9796 36.573L61.8487 39.8842C61.9274 39.975 61.9648 40.0804 61.9681 40.1844H62.1767C62.1799 40.089 62.2118 39.9922 62.2783 39.9059L64.7867 36.6491C64.9815 36.3963 65.363 36.3963 65.5577 36.6491L68.0661 39.9059C68.1326 39.9922 68.1645 40.089 68.1677 40.1844H68.377C68.3803 40.0804 68.4177 39.975 68.4964 39.8842L71.3655 36.573C71.5595 36.3492 71.907 36.3492 72.101 36.573L74.9701 39.8842C75.0488 39.975 75.0861 40.0804 75.0895 40.1844H75.299C75.3022 40.089 75.3341 39.9922 75.4006 39.9059L77.909 36.6491C78.1037 36.3963 78.4852 36.3963 78.68 36.6491L81.1884 39.9059C81.2549 39.9922 81.2868 40.089 81.29 40.1844H81.3555C81.3587 40.089 81.3906 39.9922 81.4571 39.9059L83.9655 36.6491C84.1602 36.3963 84.5417 36.3963 84.7365 36.6491L86.9976 39.5848L89.576 36.9869C89.8819 36.6787 90.4079 36.8952 90.4079 37.3293V40.1844H90.4083V127.583H24.7939V40.1844H24.7967C24.7952 40.169 24.7945 40.1534 24.7945 40.1377V37.3222C24.7945 36.889 25.3185 36.6721 25.625 36.9784L28.1289 39.481C28.16 39.5121 28.1858 39.5456 28.2065 39.5807L30.4644 36.6491C30.6591 36.3963 31.0407 36.3963 31.2354 36.6491L33.7438 39.9059C33.8103 39.9922 33.8422 40.089 33.8454 40.1844H33.9127C33.9159 40.089 33.9478 39.9922 34.0143 39.9059L36.5227 36.6491C36.7175 36.3963 37.099 36.3963 37.2937 36.6491L39.8021 39.9059C39.8686 39.9922 39.9005 40.089 39.9037 40.1844H40.2585C40.262 40.0725 40.3046 39.9594 40.3952 39.8653L43.623 36.5127Z" fill="url(#paint2_linear_207_4843)"/>
<path fill-rule="evenodd" clip-rule="evenodd" d="M34.3733 107.392H30.8516V118.676H34.3733V107.392ZM36.1333 107.392H38.5892V118.676H36.1333V107.392ZM45.6325 107.392H40.3499V118.676H45.6325V107.392ZM64.3089 107.392H60.7872V118.676H64.3089V107.392ZM68.5249 107.392H66.0689V118.676H68.5249V107.392ZM75.5673 107.392H70.2847V118.676H75.5673V107.392ZM81.8964 107.392H84.3523V118.676H81.8964V107.392ZM76.6146 107.392H80.1364V118.676H76.6146V107.392ZM53.1399 107.392H56.5458V118.676H53.1399V107.392ZM52.0279 107.392H50.4523V118.676H52.0279V107.392ZM47.0467 107.392H49.3173V118.676H47.0467V107.392ZM59.3731 107.392H57.9598V118.676H59.3731V107.392Z" fill="#C6B6F4"/>
<path d="M71.2288 51.2823C71.2288 54.6255 65.1276 57.3357 57.6012 57.3357C50.0749 57.3357 43.9736 54.6255 43.9736 51.2823C43.9736 47.939 50.0749 45.2288 57.6012 45.2288C65.1276 45.2288 71.2288 47.939 71.2288 51.2823Z" fill="white" fill-opacity="0.5"/>
<path fill-rule="evenodd" clip-rule="evenodd" d="M51.7865 51.7826C51.1032 52.2133 50.4912 52.5725 50.2497 52.6937C50.0095 52.8141 49.7172 52.7171 49.5967 52.4771C49.4762 52.2371 49.5732 51.9449 49.8134 51.8245C50.0789 51.6913 50.9682 51.163 51.8461 50.5885C52.0564 49.8267 52.6084 49.0242 53.6289 48.8195C53.7592 48.7934 53.8885 48.7757 54.0062 48.7783C54.0944 48.7803 54.3141 48.7935 54.4791 48.9672C54.6944 49.1937 54.6307 49.4659 54.5842 49.5816C54.5367 49.6998 54.459 49.7995 54.3971 49.8704C54.1495 50.1542 53.6491 50.5336 53.126 50.8986C52.996 50.9892 52.8612 51.0813 52.7238 51.1736C52.6977 51.4548 52.7438 51.6665 52.8009 51.7707C52.8086 51.7847 52.8152 51.7946 52.8204 51.8014C52.8237 51.8005 52.8274 51.7994 52.8317 51.7979C53.631 51.5308 54.2824 51.0109 54.488 50.8048C54.6148 50.6776 54.8014 50.6306 54.9733 50.6826C55.1452 50.7345 55.2745 50.8769 55.3097 51.053C55.3592 51.3015 55.4812 51.4414 55.5748 51.47C55.6516 51.4934 55.9896 51.5211 56.7039 50.8048C57.3687 50.1381 58.1043 49.9765 58.7582 50.1732C59.3705 50.3574 59.8357 50.8335 60.069 51.3015C60.0889 51.3414 60.1274 51.3851 60.2358 51.4192C60.3537 51.4564 60.5252 51.4707 60.7435 51.4508C61.1804 51.411 61.6755 51.2468 62.0007 51.0838C62.4669 50.85 62.7972 50.3793 62.8913 50.1904C63.002 49.9684 63.2622 49.8653 63.495 49.9511C63.7279 50.0369 63.8588 50.2842 63.7988 50.5249C63.7626 50.6702 63.7889 50.8219 63.8816 50.9138C63.973 51.0044 64.2688 51.1766 65.0931 51.0388C65.3581 50.9945 65.6088 51.1733 65.6531 51.4382C65.6974 51.703 65.5185 51.9536 65.2535 51.9979C64.305 52.1564 63.6161 52.02 63.1966 51.6044C63.1591 51.5673 63.125 51.5291 63.0938 51.49C62.9081 51.6629 62.6885 51.8268 62.4369 51.953C62.0234 52.1603 61.4107 52.3665 60.8319 52.4192C60.5425 52.4456 60.2292 52.4368 59.9432 52.3466C59.6476 52.2535 59.363 52.0657 59.1982 51.7352C59.0623 51.4626 58.7888 51.1979 58.4778 51.1044C58.2084 51.0233 57.8361 51.0469 57.393 51.4912C56.6301 52.2563 55.9217 52.5926 55.2906 52.4C55.0029 52.3122 54.7957 52.1338 54.6492 51.931C54.2672 52.2077 53.7413 52.5193 53.1403 52.7202C52.904 52.7992 52.6542 52.8006 52.4235 52.6963C52.2003 52.5954 52.0472 52.4194 51.9477 52.2382C51.8721 52.1003 51.8194 51.9456 51.7865 51.7826ZM53.9849 49.7505C53.9981 49.7508 53.9953 49.7522 53.9818 49.7505C53.983 49.7505 53.984 49.7505 53.9849 49.7505Z" fill="#C6B6F4"/>
<path fill-rule="evenodd" clip-rule="evenodd" d="M35.9961 69.443C35.9961 68.9393 36.4045 68.5309 36.9082 68.5309H54.0689C54.5727 68.5309 54.9811 68.9393 54.9811 69.443C54.9811 69.9468 54.5727 70.3552 54.0689 70.3552H36.9082C36.4045 70.3552 35.9961 69.9468 35.9961 69.443Z" fill="white" fill-opacity="0.72"/>
<path fill-rule="evenodd" clip-rule="evenodd" d="M66.9033 97.6926C66.9033 97.1888 67.3117 96.7804 67.8155 96.7804L77.91 96.7804C78.4138 96.7804 78.8221 97.1888 78.8221 97.6925C78.8221 98.1963 78.4138 98.6047 77.91 98.6047L67.8155 98.6047C67.3117 98.6047 66.9033 98.1963 66.9033 97.6926Z" fill="white" fill-opacity="0.72"/>
<path fill-rule="evenodd" clip-rule="evenodd" d="M35.9961 76.5052C35.9961 76.0015 36.4045 75.5931 36.9082 75.5931H49.0217C49.5254 75.5931 49.9338 76.0015 49.9338 76.5052C49.9338 77.009 49.5254 77.4174 49.0217 77.4174H36.9082C36.4045 77.4174 35.9961 77.009 35.9961 76.5052Z" fill="white" fill-opacity="0.72"/>
<path fill-rule="evenodd" clip-rule="evenodd" d="M35.9961 83.5677C35.9961 83.064 36.4045 82.6556 36.9082 82.6556H59.1162C59.62 82.6556 60.0283 83.064 60.0283 83.5677C60.0283 84.0715 59.62 84.4799 59.1162 84.4799H36.9082C36.4045 84.4799 35.9961 84.0715 35.9961 83.5677Z" fill="white" fill-opacity="0.72"/>
<path d="M77.8719 71.8305V66.3053H78.2261V71.8305H77.8719ZM78.8934 68.0729C78.8732 67.8845 78.7883 67.7377 78.6385 67.6327C78.4903 67.5276 78.2973 67.4751 78.0598 67.4751C77.8928 67.4751 77.7496 67.5003 77.6301 67.5506C77.5106 67.601 77.4192 67.6693 77.3558 67.7557C77.2925 67.842 77.2601 67.9406 77.2586 68.0514C77.2586 68.1434 77.2795 68.2233 77.3213 68.2909C77.3645 68.3586 77.4228 68.4161 77.4962 68.4636C77.5696 68.5096 77.6509 68.5485 77.7402 68.5801C77.8295 68.6118 77.9194 68.6384 78.0101 68.66L78.4248 68.7636C78.5918 68.8024 78.7523 68.855 78.9063 68.9212C79.0618 68.9873 79.2007 69.0708 79.3231 69.1715C79.4469 69.2722 79.5448 69.3938 79.6168 69.5363C79.6888 69.6787 79.7247 69.8456 79.7247 70.037C79.7247 70.296 79.6585 70.5241 79.5261 70.7212C79.3936 70.9169 79.2022 71.0701 78.9517 71.1809C78.7026 71.2902 78.401 71.3449 78.0468 71.3449C77.7028 71.3449 77.404 71.2917 77.1507 71.1852C76.8987 71.0787 76.7015 70.9233 76.559 70.719C76.4179 70.5147 76.3416 70.2658 76.3301 69.9722H77.1183C77.1298 70.1262 77.1773 70.2543 77.2608 70.3564C77.3443 70.4586 77.453 70.5348 77.5869 70.5852C77.7222 70.6356 77.8734 70.6607 78.0404 70.6607C78.2146 70.6607 78.3672 70.6348 78.4982 70.583C78.6306 70.5298 78.7343 70.4564 78.8091 70.3629C78.884 70.2679 78.9221 70.1571 78.9236 70.0305C78.9221 69.9154 78.8883 69.8204 78.8221 69.7456C78.7559 69.6694 78.663 69.6061 78.5435 69.5557C78.4255 69.5039 78.2873 69.4579 78.1289 69.4176L77.6258 69.2881C77.2615 69.1945 76.9736 69.0528 76.762 68.8629C76.5518 68.6715 76.4467 68.4176 76.4467 68.101C76.4467 67.8406 76.5172 67.6125 76.6583 67.4168C76.8008 67.2211 76.9945 67.0693 77.2392 66.9614C77.4839 66.8521 77.7611 66.7974 78.0706 66.7974C78.3844 66.7974 78.6594 66.8521 78.8955 66.9614C79.1331 67.0693 79.3195 67.2197 79.4548 67.4125C79.5901 67.6039 79.66 67.824 79.6643 68.0729H78.8934Z" fill="white" fill-opacity="0.72"/>
<path d="M32.7494 67.7421V71.2783H31.8959V68.5398H31.8752L31.084 69.0233V68.2843L31.9564 67.7421H32.7494Z" fill="white" fill-opacity="0.72"/>
<path d="M31.1114 78.3406V77.7259L32.4019 76.5967C32.4986 76.5092 32.581 76.4292 32.6489 76.3567C32.7169 76.283 32.7687 76.2094 32.8044 76.1357C32.8401 76.0609 32.858 75.9797 32.858 75.8922C32.858 75.7944 32.8367 75.7109 32.794 75.6419C32.7514 75.5717 32.6927 75.5176 32.6178 75.4796C32.543 75.4416 32.4572 75.4226 32.3604 75.4226C32.2625 75.4226 32.1767 75.4427 32.103 75.483C32.0293 75.5222 31.9717 75.5791 31.9303 75.654C31.89 75.7288 31.8698 75.8197 31.8698 75.9268H31.0596C31.0596 75.6862 31.1137 75.4784 31.222 75.3034C31.3302 75.1285 31.4822 74.9938 31.678 74.8994C31.875 74.8039 32.1036 74.7561 32.3639 74.7561C32.6322 74.7561 32.8655 74.801 33.0635 74.8908C33.2616 74.9806 33.4148 75.106 33.5231 75.2672C33.6325 75.4272 33.6872 75.6131 33.6872 75.8249C33.6872 75.9596 33.6601 76.0931 33.606 76.2255C33.5519 76.3578 33.4546 76.504 33.314 76.664C33.1747 76.824 32.9766 77.0157 32.7198 77.239L32.2965 77.6292V77.6517H33.7304V78.3406H31.1114Z" fill="white" fill-opacity="0.72"/>
<path d="M32.4581 85.4511C32.1886 85.4511 31.9496 85.4051 31.7411 85.313C31.5338 85.2198 31.3703 85.0914 31.2505 84.928C31.1307 84.7645 31.0697 84.5763 31.0674 84.3634H31.9277C31.9312 84.4405 31.9559 84.509 32.002 84.5688C32.0481 84.6275 32.1108 84.6736 32.1903 84.707C32.2698 84.7403 32.3602 84.757 32.4615 84.757C32.5629 84.757 32.6521 84.7392 32.7293 84.7035C32.8076 84.6667 32.8687 84.6166 32.9124 84.5533C32.9562 84.4888 32.9775 84.4152 32.9763 84.3323C32.9775 84.2494 32.9539 84.1757 32.9055 84.1113C32.8571 84.0468 32.7886 83.9967 32.6999 83.9611C32.6124 83.9254 32.5087 83.9075 32.389 83.9075H32.0452V83.2998H32.389C32.4938 83.2998 32.5859 83.2825 32.6654 83.248C32.746 83.2134 32.8088 83.1651 32.8537 83.1029C32.8986 83.0396 32.9205 82.9671 32.9193 82.8854C32.9205 82.8059 32.9015 82.7363 32.8623 82.6764C32.8243 82.6154 32.7708 82.5682 32.7017 82.5349C32.6337 82.5015 32.5548 82.4848 32.465 82.4848C32.3705 82.4848 32.2847 82.5015 32.2076 82.5349C32.1316 82.5682 32.0711 82.6154 32.0262 82.6764C31.9813 82.7374 31.9577 82.8082 31.9554 82.8888H31.1382C31.1405 82.6782 31.1993 82.4928 31.3144 82.3328C31.4296 82.1717 31.5862 82.0456 31.7843 81.9547C31.9836 81.8638 32.2105 81.8183 32.465 81.8183C32.7184 81.8183 32.9412 81.8626 33.1336 81.9512C33.3259 82.0399 33.4756 82.1607 33.5827 82.3138C33.6898 82.4658 33.7434 82.6379 33.7434 82.8301C33.7445 83.0292 33.6795 83.1933 33.5482 83.3222C33.418 83.4511 33.2505 83.5305 33.0454 83.5605V83.5881C33.3196 83.6203 33.5263 83.709 33.6656 83.854C33.8062 83.999 33.8758 84.1803 33.8747 84.3979C33.8747 84.6028 33.8142 84.7847 33.6933 84.9435C33.5735 85.1012 33.4065 85.2255 33.1923 85.3165C32.9792 85.4063 32.7345 85.4511 32.4581 85.4511Z" fill="white" fill-opacity="0.72"/>
<path d="M77.8719 78.8931V73.3679H78.2261V78.8931H77.8719ZM78.8934 75.1355C78.8732 74.947 78.7883 74.8002 78.6385 74.6952C78.4903 74.5902 78.2973 74.5377 78.0598 74.5377C77.8928 74.5377 77.7496 74.5628 77.6301 74.6132C77.5106 74.6636 77.4192 74.7319 77.3558 74.8182C77.2925 74.9046 77.2601 75.0031 77.2586 75.1139C77.2586 75.206 77.2795 75.2859 77.3213 75.3535C77.3645 75.4211 77.4228 75.4787 77.4962 75.5262C77.5696 75.5722 77.6509 75.6111 77.7402 75.6427C77.8295 75.6744 77.9194 75.701 78.0101 75.7226L78.4248 75.8262C78.5918 75.865 78.7523 75.9175 78.9063 75.9837C79.0618 76.0499 79.2007 76.1334 79.3231 76.2341C79.4469 76.3348 79.5448 76.4564 79.6168 76.5988C79.6888 76.7413 79.7247 76.9082 79.7247 77.0996C79.7247 77.3586 79.6585 77.5866 79.5261 77.7837C79.3936 77.9794 79.2022 78.1327 78.9517 78.2435C78.7026 78.3528 78.401 78.4075 78.0468 78.4075C77.7028 78.4075 77.404 78.3542 77.1507 78.2478C76.8987 78.1413 76.7015 77.9859 76.559 77.7816C76.4179 77.5773 76.3416 77.3283 76.3301 77.0348H77.1183C77.1298 77.1888 77.1773 77.3168 77.2608 77.419C77.3443 77.5211 77.453 77.5974 77.5869 77.6478C77.7222 77.6981 77.8734 77.7233 78.0404 77.7233C78.2146 77.7233 78.3672 77.6974 78.4982 77.6456C78.6306 77.5924 78.7343 77.519 78.8091 77.4255C78.884 77.3305 78.9221 77.2197 78.9236 77.0931C78.9221 76.978 78.8883 76.883 78.8221 76.8082C78.7559 76.7319 78.663 76.6686 78.5435 76.6183C78.4255 76.5665 78.2873 76.5204 78.1289 76.4801L77.6258 76.3506C77.2615 76.2571 76.9736 76.1154 76.762 75.9254C76.5518 75.7341 76.4467 75.4801 76.4467 75.1636C76.4467 74.9031 76.5172 74.6751 76.6583 74.4794C76.8008 74.2837 76.9945 74.1319 77.2392 74.024C77.4839 73.9146 77.7611 73.86 78.0706 73.86C78.3844 73.86 78.6594 73.9146 78.8955 74.024C79.1331 74.1319 79.3195 74.2823 79.4548 74.4751C79.5901 74.6664 79.66 74.8866 79.6643 75.1355H78.8934Z" fill="white" fill-opacity="0.72"/>
<path d="M77.8719 85.9554V80.4302H78.2261V85.9554H77.8719ZM78.8934 82.1978C78.8732 82.0093 78.7883 81.8626 78.6385 81.7575C78.4903 81.6525 78.2973 81.6 78.0598 81.6C77.8928 81.6 77.7496 81.6252 77.6301 81.6755C77.5106 81.7259 77.4192 81.7942 77.3558 81.8806C77.2925 81.9669 77.2601 82.0654 77.2586 82.1762C77.2586 82.2683 77.2795 82.3482 77.3213 82.4158C77.3645 82.4834 77.4228 82.541 77.4962 82.5885C77.5696 82.6345 77.6509 82.6734 77.7402 82.705C77.8295 82.7367 77.9194 82.7633 78.0101 82.7849L78.4248 82.8885C78.5918 82.9273 78.7523 82.9798 78.9063 83.046C79.0618 83.1122 79.2007 83.1957 79.3231 83.2964C79.4469 83.3971 79.5448 83.5187 79.6168 83.6611C79.6888 83.8036 79.7247 83.9705 79.7247 84.1619C79.7247 84.4209 79.6585 84.6489 79.5261 84.8461C79.3936 85.0417 79.2022 85.195 78.9517 85.3058C78.7026 85.4151 78.401 85.4698 78.0468 85.4698C77.7028 85.4698 77.404 85.4166 77.1507 85.3101C76.8987 85.2036 76.7015 85.0482 76.559 84.8439C76.4179 84.6396 76.3416 84.3907 76.3301 84.0971H77.1183C77.1298 84.2511 77.1773 84.3791 77.2608 84.4813C77.3443 84.5835 77.453 84.6597 77.5869 84.7101C77.7222 84.7604 77.8734 84.7856 78.0404 84.7856C78.2146 84.7856 78.3672 84.7597 78.4982 84.7079C78.6306 84.6547 78.7343 84.5813 78.8091 84.4878C78.884 84.3928 78.9221 84.282 78.9236 84.1554C78.9221 84.0403 78.8883 83.9453 78.8221 83.8705C78.7559 83.7942 78.663 83.7309 78.5435 83.6806C78.4255 83.6288 78.2873 83.5827 78.1289 83.5424L77.6258 83.4129C77.2615 83.3194 76.9736 83.1777 76.762 82.9878C76.5518 82.7964 76.4467 82.5424 76.4467 82.2259C76.4467 81.9654 76.5172 81.7374 76.6583 81.5417C76.8008 81.346 76.9945 81.1942 77.2392 81.0863C77.4839 80.9769 77.7611 80.9223 78.0706 80.9223C78.3844 80.9223 78.6594 80.9769 78.8955 81.0863C79.1331 81.1942 79.3195 81.3446 79.4548 81.5374C79.5901 81.7288 79.66 81.9489 79.6643 82.1978H78.8934Z" fill="white" fill-opacity="0.72"/>
<path d="M63.576 100.08V94.5545H63.9302V100.08H63.576ZM64.5975 96.3222C64.5773 96.1337 64.4924 95.9869 64.3426 95.8819C64.1944 95.7768 64.0014 95.7243 63.7639 95.7243C63.5969 95.7243 63.4537 95.7495 63.3342 95.7998C63.2147 95.8502 63.1233 95.9185 63.0599 96.0049C62.9966 96.0912 62.9642 96.1898 62.9627 96.3006C62.9627 96.3927 62.9836 96.4725 63.0254 96.5401C63.0686 96.6078 63.1269 96.6653 63.2003 96.7128C63.2737 96.7588 63.355 96.7977 63.4443 96.8294C63.5336 96.861 63.6235 96.8876 63.7142 96.9092L64.1289 97.0128C64.2959 97.0517 64.4564 97.1042 64.6104 97.1704C64.7659 97.2365 64.9048 97.32 65.0272 97.4207C65.151 97.5214 65.2489 97.643 65.3209 97.7855C65.3929 97.9279 65.4288 98.0948 65.4288 98.2862C65.4288 98.5452 65.3626 98.7733 65.2302 98.9704C65.0977 99.1661 64.9063 99.3193 64.6558 99.4301C64.4067 99.5395 64.1051 99.5941 63.7509 99.5941C63.4069 99.5941 63.1082 99.5409 62.8548 99.4344C62.6028 99.3279 62.4056 99.1725 62.2631 98.9682C62.122 98.7639 62.0457 98.515 62.0342 98.2215H62.8224C62.8339 98.3754 62.8814 98.5035 62.9649 98.6056C63.0484 98.7078 63.1571 98.784 63.291 98.8344C63.4263 98.8848 63.5775 98.91 63.7445 98.91C63.9187 98.91 64.0713 98.8841 64.2023 98.8323C64.3347 98.779 64.4384 98.7056 64.5132 98.6121C64.5881 98.5171 64.6263 98.4063 64.6277 98.2797C64.6263 98.1646 64.5924 98.0697 64.5262 97.9948C64.46 97.9186 64.3671 97.8553 64.2476 97.8049C64.1296 97.7531 63.9914 97.7071 63.833 97.6668L63.3299 97.5373C62.9656 97.4437 62.6777 97.302 62.4661 97.1121C62.2559 96.9207 62.1508 96.6668 62.1508 96.3502C62.1508 96.0898 62.2213 95.8617 62.3624 95.666C62.5049 95.4703 62.6986 95.3185 62.9433 95.2106C63.1881 95.1013 63.4652 95.0466 63.7747 95.0466C64.0885 95.0466 64.3635 95.1013 64.5996 95.2106C64.8372 95.3185 65.0236 95.4689 65.1589 95.6617C65.2942 95.8531 65.3641 96.0732 65.3684 96.3222H64.5975Z" fill="white" fill-opacity="0.72"/>
<g filter="url(#filter0_d_207_4843)">
<path d="M106.7 90.606C106.7 89.0962 107.806 87.8723 109.169 87.8723H256.08C257.443 87.8723 258.549 89.0962 258.549 90.606V207.472C258.549 208.982 257.443 210.206 256.08 210.206H109.169C107.806 210.206 106.7 208.982 106.7 207.472V90.606Z" fill="white"/>
</g>
<path d="M120.504 97.0704C120.504 98.5943 119.268 99.8298 117.743 99.8298C116.219 99.8298 114.982 98.5943 114.982 97.0704C114.982 95.5464 116.219 94.311 117.743 94.311C119.268 94.311 120.504 95.5464 120.504 97.0704Z" fill="#E8EDFF"/>
<path d="M128.786 97.0704C128.786 98.5943 127.55 99.8298 126.026 99.8298C124.501 99.8298 123.265 98.5943 123.265 97.0704C123.265 95.5464 124.501 94.311 126.026 94.311C127.55 94.311 128.786 95.5464 128.786 97.0704Z" fill="#E8EDFF"/>
<path d="M137.071 97.0704C137.071 98.5943 135.835 99.8298 134.31 99.8298C132.785 99.8298 131.549 98.5943 131.549 97.0704C131.549 95.5464 132.785 94.311 134.31 94.311C135.835 94.311 137.071 95.5464 137.071 97.0704Z" fill="#E8EDFF"/>
<path d="M114.982 108.935C114.982 107.97 115.967 107.188 117.182 107.188H248.066C249.281 107.188 250.266 107.97 250.266 108.935V183.624C250.266 184.589 249.281 185.371 248.066 185.371H117.182C115.967 185.371 114.982 184.589 114.982 183.624V108.935Z" fill="white"/>
<path fill-rule="evenodd" clip-rule="evenodd" d="M117.182 106.084H248.066C249.64 106.084 251.37 107.138 251.37 108.935V183.624C251.37 185.422 249.64 186.475 248.066 186.475H117.182C115.607 186.475 113.878 185.422 113.878 183.624V108.935C113.878 107.138 115.607 106.084 117.182 106.084ZM117.182 107.188C115.967 107.188 114.982 107.97 114.982 108.935V183.624C114.982 184.589 115.967 185.371 117.182 185.371H248.066C249.281 185.371 250.266 184.589 250.266 183.624V108.935C250.266 107.97 249.281 107.188 248.066 107.188H117.182Z" fill="#EAEFFF"/>
<path d="M149.758 142.365C149.758 141.939 150.104 141.593 150.53 141.593H177.821C178.248 141.593 178.594 141.939 178.594 142.365C178.594 142.792 178.248 143.138 177.821 143.138H150.53C150.104 143.138 149.758 142.792 149.758 142.365Z" fill="#C3D1F8"/>
<path d="M149.758 129.116C149.758 128.689 150.104 128.344 150.53 128.344H177.821C178.248 128.344 178.594 128.689 178.594 129.116C178.594 129.542 178.248 129.888 177.821 129.888H150.53C150.104 129.888 149.758 129.542 149.758 129.116Z" fill="#C3D1F8"/>
<path d="M152.847 154.827C152.847 154.4 153.192 154.054 153.619 154.054H173.701C174.128 154.054 174.474 154.4 174.474 154.827C174.474 155.253 174.128 155.599 173.701 155.599H153.619C153.192 155.599 152.847 155.253 152.847 154.827Z" fill="#C3D1F8"/>
<path d="M148.728 167.178C148.728 166.751 149.073 166.406 149.5 166.406H177.821C178.247 166.406 178.593 166.751 178.593 167.178C178.593 167.605 178.247 167.95 177.821 167.95H149.5C149.073 167.95 148.728 167.605 148.728 167.178Z" fill="#C3D1F8"/>
<path d="M148.728 179.42C148.728 178.994 149.073 178.648 149.5 178.648H177.821C178.247 178.648 178.593 178.994 178.593 179.42C178.593 179.847 178.247 180.193 177.821 180.193H149.5C149.073 180.193 148.728 179.847 148.728 179.42Z" fill="#C3D1F8"/>
<path d="M122.98 142.365C122.98 141.939 123.326 141.593 123.753 141.593H133.536C133.963 141.593 134.309 141.939 134.309 142.365C134.309 142.792 133.963 143.138 133.536 143.138H123.753C123.326 143.138 122.98 142.792 122.98 142.365Z" fill="#C3D1F8"/>
<path d="M122.98 129.116C122.98 128.689 123.326 128.344 123.753 128.344H133.536C133.963 128.344 134.309 128.689 134.309 129.116C134.309 129.542 133.963 129.888 133.536 129.888H123.753C123.326 129.888 122.98 129.542 122.98 129.116Z" fill="#C3D1F8"/>
<path d="M114.741 122.551C114.741 122.267 114.972 122.036 115.256 122.036H250.167C250.451 122.036 250.682 122.267 250.682 122.551C250.682 122.836 250.451 123.066 250.167 123.066H115.256C114.972 123.066 114.741 122.836 114.741 122.551Z" fill="#EAEFFF"/>
<path d="M114.741 135.932C114.741 135.648 114.972 135.417 115.256 135.417H250.167C250.451 135.417 250.682 135.648 250.682 135.932C250.682 136.216 250.451 136.447 250.167 136.447H115.256C114.972 136.447 114.741 136.216 114.741 135.932Z" fill="#EAEFFF"/>
<path d="M114.741 149.313C114.741 149.029 114.972 148.798 115.256 148.798H250.167C250.451 148.798 250.682 149.029 250.682 149.313C250.682 149.597 250.451 149.828 250.167 149.828H115.256C114.972 149.828 114.741 149.597 114.741 149.313Z" fill="#EAEFFF"/>
<path d="M114.741 160.854C114.741 160.57 114.972 160.339 115.256 160.339H250.167C250.451 160.339 250.682 160.57 250.682 160.854C250.682 161.139 250.451 161.369 250.167 161.369H115.256C114.972 161.369 114.741 161.139 114.741 160.854Z" fill="#EAEFFF"/>
<path d="M114.741 173.206C114.741 172.922 114.972 172.691 115.256 172.691H250.167C250.451 172.691 250.682 172.922 250.682 173.206C250.682 173.49 250.451 173.721 250.167 173.721H115.256C114.972 173.721 114.741 173.49 114.741 173.206Z" fill="#EAEFFF"/>
<path d="M196.1 142.365C196.1 141.939 196.445 141.593 196.872 141.593H206.656C207.082 141.593 207.428 141.939 207.428 142.365C207.428 142.792 207.082 143.138 206.656 143.138H196.872C196.445 143.138 196.1 142.792 196.1 142.365Z" fill="#C3D1F8"/>
<path d="M196.1 129.116C196.1 128.689 196.445 128.344 196.872 128.344H206.656C207.082 128.344 207.428 128.689 207.428 129.116C207.428 129.542 207.082 129.888 206.656 129.888H196.872C196.445 129.888 196.1 129.542 196.1 129.116Z" fill="#C3D1F8"/>
<path d="M224.936 142.365C224.936 141.939 225.281 141.593 225.708 141.593H243.73C244.157 141.593 244.503 141.939 244.503 142.365C244.503 142.792 244.157 143.138 243.73 143.138H225.708C225.281 143.138 224.936 142.792 224.936 142.365Z" fill="#C3D1F8"/>
<path d="M224.936 129.116C224.936 128.689 225.281 128.344 225.708 128.344H243.73C244.157 128.344 244.503 128.689 244.503 129.116C244.503 129.542 244.157 129.888 243.73 129.888H225.708C225.281 129.888 224.936 129.542 224.936 129.116Z" fill="#C3D1F8"/>
<path d="M125.04 154.827C125.04 154.4 125.386 154.054 125.812 154.054H131.477C131.903 154.054 132.249 154.4 132.249 154.827C132.249 155.253 131.903 155.599 131.477 155.599H125.812C125.386 155.599 125.04 155.253 125.04 154.827Z" fill="#C3D1F8"/>
<path d="M198.16 154.827C198.16 154.4 198.506 154.054 198.933 154.054H204.597C205.023 154.054 205.369 154.4 205.369 154.827C205.369 155.253 205.023 155.599 204.597 155.599H198.933C198.506 155.599 198.16 155.253 198.16 154.827Z" fill="#C3D1F8"/>
<path d="M229.056 154.827C229.056 154.4 229.401 154.054 229.828 154.054H240.642C241.068 154.054 241.414 154.4 241.414 154.827C241.414 155.253 241.068 155.599 240.642 155.599H229.828C229.401 155.599 229.056 155.253 229.056 154.827Z" fill="#C3D1F8"/>
<path d="M122.98 167.178C122.98 166.751 123.326 166.406 123.753 166.406H133.536C133.963 166.406 134.309 166.751 134.309 167.178C134.309 167.605 133.963 167.95 133.536 167.95H123.753C123.326 167.95 122.98 167.605 122.98 167.178Z" fill="#C3D1F8"/>
<path d="M122.98 179.42C122.98 178.994 123.326 178.648 123.753 178.648H133.536C133.963 178.648 134.309 178.994 134.309 179.42C134.309 179.847 133.963 180.193 133.536 180.193H123.753C123.326 180.193 122.98 179.847 122.98 179.42Z" fill="#C3D1F8"/>
<path d="M196.1 167.178C196.1 166.751 196.445 166.406 196.872 166.406H206.656C207.082 166.406 207.428 166.751 207.428 167.178C207.428 167.605 207.082 167.95 206.656 167.95H196.872C196.445 167.95 196.1 167.605 196.1 167.178Z" fill="#C3D1F8"/>
<path d="M224.936 167.178C224.936 166.751 225.281 166.406 225.708 166.406H243.73C244.157 166.406 244.503 166.751 244.503 167.178C244.503 167.605 244.157 167.95 243.73 167.95H225.708C225.281 167.95 224.936 167.605 224.936 167.178Z" fill="#C3D1F8"/>
<path d="M196.1 179.42C196.1 178.994 196.445 178.648 196.872 178.648H206.656C207.082 178.648 207.428 178.994 207.428 179.42C207.428 179.847 207.082 180.193 206.656 180.193H196.872C196.445 180.193 196.1 179.847 196.1 179.42Z" fill="#C3D1F8"/>
<path d="M224.936 179.42C224.936 178.994 225.281 178.648 225.708 178.648H243.73C244.157 178.648 244.503 178.994 244.503 179.42C244.503 179.847 244.157 180.193 243.73 180.193H225.708C225.281 180.193 224.936 179.847 224.936 179.42Z" fill="#C3D1F8"/>
<path d="M117.743 111.426C117.743 110.41 118.567 109.586 119.584 109.586H137.99C139.006 109.586 139.83 110.41 139.83 111.426V117.864C139.83 118.88 139.006 119.704 137.99 119.704H119.584C118.567 119.704 117.743 118.88 117.743 117.864V111.426Z" fill="#FFF6E6"/>
<path d="M144.432 111.787C144.432 110.771 145.256 109.947 146.272 109.947H181.243C182.26 109.947 183.084 110.771 183.084 111.787V118.226C183.084 119.242 182.26 120.065 181.243 120.065H146.272C145.256 120.065 144.432 119.242 144.432 118.226V111.787Z" fill="#F2F9F7"/>
<path d="M153.9 112.832H154.791C155 112.832 155.188 112.864 155.354 112.928C155.521 112.991 155.664 113.082 155.781 113.2C155.899 113.315 155.989 113.454 156.05 113.616C156.114 113.778 156.146 113.955 156.146 114.149C156.146 114.345 156.114 114.524 156.05 114.686C155.989 114.848 155.899 114.987 155.781 115.102C155.664 115.217 155.521 115.307 155.354 115.371C155.188 115.434 155 115.466 154.791 115.466H153.9V112.832ZM154.769 114.995C154.914 114.995 155.042 114.976 155.152 114.937C155.262 114.895 155.354 114.837 155.428 114.764C155.502 114.69 155.557 114.602 155.594 114.499C155.631 114.393 155.649 114.277 155.649 114.149C155.649 114.022 155.631 113.906 155.594 113.803C155.557 113.698 155.502 113.608 155.428 113.535C155.354 113.461 155.262 113.405 155.152 113.365C155.042 113.324 154.914 113.303 154.769 113.303H154.397V114.995H154.769Z" fill="#48A589"/>
<path d="M158.141 115.032C158.058 115.179 157.945 115.298 157.803 115.389C157.663 115.48 157.491 115.525 157.287 115.525C157.15 115.525 157.022 115.502 156.905 115.455C156.789 115.406 156.689 115.339 156.603 115.253C156.517 115.167 156.449 115.067 156.4 114.951C156.354 114.833 156.33 114.705 156.33 114.565C156.33 114.435 156.354 114.312 156.4 114.197C156.447 114.079 156.512 113.977 156.595 113.892C156.679 113.803 156.777 113.733 156.89 113.682C157.005 113.63 157.132 113.605 157.269 113.605C157.414 113.605 157.543 113.629 157.656 113.678C157.768 113.725 157.863 113.791 157.939 113.877C158.015 113.96 158.073 114.06 158.112 114.175C158.151 114.29 158.171 114.415 158.171 114.55C158.171 114.567 158.171 114.582 158.171 114.594C158.168 114.609 158.167 114.623 158.167 114.635C158.165 114.647 158.164 114.661 158.164 114.675H156.805C156.815 114.749 156.835 114.813 156.864 114.867C156.896 114.918 156.934 114.962 156.978 114.999C157.025 115.033 157.075 115.059 157.129 115.076C157.183 115.091 157.238 115.098 157.295 115.098C157.405 115.098 157.496 115.074 157.567 115.025C157.641 114.973 157.699 114.91 157.74 114.833L158.141 115.032ZM157.703 114.333C157.701 114.301 157.69 114.266 157.67 114.226C157.653 114.187 157.626 114.15 157.589 114.116C157.555 114.082 157.511 114.054 157.457 114.031C157.405 114.009 157.343 113.998 157.269 113.998C157.166 113.998 157.075 114.028 156.997 114.087C156.918 114.145 156.863 114.228 156.831 114.333H157.703Z" fill="#48A589"/>
<path d="M159.211 115.525C159.093 115.525 158.988 115.51 158.894 115.481C158.804 115.452 158.724 115.414 158.655 115.367C158.589 115.318 158.532 115.263 158.486 115.201C158.439 115.138 158.404 115.074 158.379 115.01L158.81 114.826C158.852 114.919 158.907 114.989 158.975 115.036C159.047 115.08 159.125 115.102 159.211 115.102C159.299 115.102 159.369 115.086 159.421 115.054C159.472 115.022 159.498 114.984 159.498 114.94C159.498 114.891 159.476 114.852 159.432 114.822C159.39 114.791 159.317 114.762 159.211 114.738L158.957 114.683C158.901 114.67 158.842 114.651 158.78 114.624C158.721 114.597 158.667 114.562 158.618 114.521C158.569 114.479 158.529 114.429 158.497 114.37C158.465 114.311 158.449 114.242 158.449 114.164C158.449 114.076 158.467 113.997 158.504 113.928C158.544 113.86 158.596 113.802 158.663 113.755C158.729 113.706 158.806 113.67 158.894 113.645C158.985 113.618 159.082 113.605 159.185 113.605C159.357 113.605 159.51 113.639 159.645 113.708C159.78 113.774 159.88 113.881 159.944 114.028L159.528 114.197C159.493 114.126 159.443 114.074 159.377 114.042C159.31 114.011 159.244 113.995 159.178 113.995C159.109 113.995 159.049 114.009 158.998 114.039C158.946 114.066 158.92 114.101 158.92 114.145C158.92 114.187 158.941 114.22 158.983 114.245C159.027 114.269 159.086 114.291 159.159 114.311L159.436 114.377C159.62 114.421 159.756 114.493 159.844 114.591C159.935 114.686 159.98 114.8 159.98 114.933C159.98 115.011 159.962 115.086 159.925 115.157C159.888 115.228 159.836 115.292 159.767 115.349C159.701 115.403 159.62 115.445 159.524 115.477C159.431 115.509 159.326 115.525 159.211 115.525Z" fill="#48A589"/>
<path d="M162.006 115.006C161.928 115.158 161.817 115.284 161.675 115.382C161.535 115.477 161.359 115.525 161.148 115.525C161.008 115.525 160.88 115.502 160.762 115.455C160.647 115.406 160.546 115.339 160.46 115.253C160.377 115.167 160.31 115.067 160.261 114.951C160.215 114.833 160.191 114.705 160.191 114.565C160.191 114.425 160.215 114.296 160.261 114.179C160.31 114.061 160.377 113.96 160.46 113.877C160.546 113.791 160.647 113.725 160.762 113.678C160.88 113.629 161.008 113.605 161.148 113.605C161.357 113.605 161.532 113.652 161.675 113.748C161.817 113.844 161.921 113.968 161.988 114.12L161.546 114.304C161.504 114.22 161.45 114.158 161.384 114.116C161.32 114.072 161.239 114.05 161.141 114.05C161.077 114.05 161.017 114.062 160.961 114.087C160.904 114.111 160.854 114.145 160.81 114.19C160.768 114.234 160.735 114.288 160.71 114.352C160.686 114.415 160.673 114.486 160.673 114.565C160.673 114.643 160.686 114.715 160.71 114.778C160.735 114.842 160.768 114.896 160.81 114.94C160.854 114.984 160.904 115.019 160.961 115.043C161.017 115.068 161.077 115.08 161.141 115.08C161.242 115.08 161.326 115.058 161.395 115.014C161.466 114.967 161.523 114.901 161.564 114.815L162.006 115.006Z" fill="#48A589"/>
<path d="M162.282 113.664H162.735V113.914H162.765C162.787 113.87 162.816 113.829 162.853 113.792C162.89 113.755 162.93 113.724 162.974 113.697C163.021 113.67 163.07 113.649 163.122 113.634C163.176 113.619 163.228 113.612 163.28 113.612C163.344 113.612 163.398 113.618 163.442 113.63C163.489 113.643 163.528 113.659 163.56 113.678L163.431 114.116C163.401 114.101 163.368 114.09 163.331 114.083C163.297 114.073 163.254 114.068 163.203 114.068C163.136 114.068 163.076 114.082 163.022 114.109C162.968 114.133 162.922 114.169 162.882 114.215C162.846 114.262 162.816 114.317 162.794 114.381C162.774 114.442 162.765 114.51 162.765 114.583V115.466H162.282V113.664Z" fill="#48A589"/>
<path d="M164.05 113.402C164.008 113.402 163.968 113.395 163.929 113.38C163.892 113.363 163.859 113.341 163.829 113.314C163.802 113.285 163.78 113.251 163.763 113.215C163.748 113.178 163.741 113.137 163.741 113.093C163.741 113.049 163.748 113.009 163.763 112.972C163.78 112.935 163.802 112.903 163.829 112.876C163.859 112.847 163.892 112.825 163.929 112.81C163.968 112.793 164.008 112.784 164.05 112.784C164.136 112.784 164.21 112.815 164.271 112.876C164.332 112.935 164.363 113.007 164.363 113.093C164.363 113.179 164.332 113.253 164.271 113.314C164.21 113.373 164.136 113.402 164.05 113.402ZM163.811 115.466V113.664H164.293V115.466H163.811Z" fill="#48A589"/>
<path d="M164.719 113.664H165.172V113.881H165.202C165.246 113.805 165.314 113.74 165.408 113.686C165.501 113.632 165.616 113.605 165.754 113.605C165.869 113.605 165.978 113.629 166.081 113.678C166.187 113.725 166.279 113.791 166.357 113.877C166.438 113.96 166.502 114.061 166.549 114.179C166.595 114.296 166.619 114.425 166.619 114.565C166.619 114.705 166.595 114.833 166.549 114.951C166.502 115.069 166.438 115.171 166.357 115.257C166.279 115.34 166.187 115.406 166.081 115.455C165.978 115.502 165.869 115.525 165.754 115.525C165.616 115.525 165.501 115.498 165.408 115.444C165.314 115.39 165.246 115.325 165.202 115.249H165.172L165.202 115.507V116.261H164.719V113.664ZM165.654 115.08C165.718 115.08 165.778 115.068 165.835 115.043C165.894 115.019 165.945 114.984 165.989 114.94C166.033 114.896 166.069 114.842 166.096 114.778C166.123 114.715 166.137 114.643 166.137 114.565C166.137 114.486 166.123 114.415 166.096 114.352C166.069 114.288 166.033 114.234 165.989 114.19C165.945 114.145 165.894 114.111 165.835 114.087C165.778 114.062 165.718 114.05 165.654 114.05C165.591 114.05 165.529 114.062 165.47 114.087C165.414 114.109 165.364 114.142 165.319 114.186C165.275 114.23 165.24 114.284 165.213 114.348C165.186 114.412 165.172 114.484 165.172 114.565C165.172 114.646 165.186 114.718 165.213 114.782C165.24 114.846 165.275 114.9 165.319 114.944C165.364 114.988 165.414 115.022 165.47 115.047C165.529 115.069 165.591 115.08 165.654 115.08Z" fill="#48A589"/>
<path d="M167.054 114.076H166.737V113.664H167.054V113.112H167.536V113.664H167.978V114.076H167.536V114.775C167.536 114.816 167.54 114.856 167.547 114.892C167.557 114.927 167.574 114.956 167.599 114.981C167.633 115.02 167.682 115.04 167.746 115.04C167.788 115.04 167.821 115.036 167.845 115.028C167.87 115.019 167.893 115.006 167.915 114.992L168.051 115.415C167.995 115.442 167.934 115.461 167.867 115.474C167.804 115.488 167.732 115.496 167.654 115.496C167.563 115.496 167.481 115.482 167.407 115.455C167.336 115.426 167.276 115.387 167.227 115.338C167.111 115.227 167.054 115.07 167.054 114.867V114.076Z" fill="#48A589"/>
<path d="M168.619 113.402C168.578 113.402 168.537 113.395 168.498 113.38C168.461 113.363 168.428 113.341 168.398 113.314C168.371 113.285 168.349 113.251 168.332 113.215C168.317 113.178 168.31 113.137 168.31 113.093C168.31 113.049 168.317 113.009 168.332 112.972C168.349 112.935 168.371 112.903 168.398 112.876C168.428 112.847 168.461 112.825 168.498 112.81C168.537 112.793 168.578 112.784 168.619 112.784C168.705 112.784 168.779 112.815 168.84 112.876C168.901 112.935 168.932 113.007 168.932 113.093C168.932 113.179 168.901 113.253 168.84 113.314C168.779 113.373 168.705 113.402 168.619 113.402ZM168.38 115.466V113.664H168.862V115.466H168.38Z" fill="#48A589"/>
<path d="M170.139 113.605C170.279 113.605 170.407 113.629 170.522 113.678C170.64 113.725 170.74 113.791 170.824 113.877C170.91 113.96 170.976 114.061 171.023 114.179C171.072 114.296 171.096 114.425 171.096 114.565C171.096 114.705 171.072 114.833 171.023 114.951C170.976 115.069 170.91 115.171 170.824 115.257C170.74 115.34 170.64 115.406 170.522 115.455C170.407 115.502 170.279 115.525 170.139 115.525C169.999 115.525 169.87 115.502 169.753 115.455C169.637 115.406 169.537 115.34 169.451 115.257C169.367 115.171 169.301 115.069 169.252 114.951C169.205 114.833 169.182 114.705 169.182 114.565C169.182 114.425 169.205 114.296 169.252 114.179C169.301 114.061 169.367 113.96 169.451 113.877C169.537 113.791 169.637 113.725 169.753 113.678C169.87 113.629 169.999 113.605 170.139 113.605ZM170.139 115.08C170.201 115.08 170.259 115.069 170.316 115.047C170.375 115.022 170.426 114.988 170.471 114.944C170.515 114.9 170.549 114.846 170.574 114.782C170.601 114.718 170.614 114.646 170.614 114.565C170.614 114.484 170.601 114.412 170.574 114.348C170.549 114.284 170.515 114.23 170.471 114.186C170.426 114.142 170.375 114.109 170.316 114.087C170.259 114.062 170.201 114.05 170.139 114.05C170.075 114.05 170.015 114.062 169.959 114.087C169.902 114.109 169.852 114.142 169.808 114.186C169.764 114.23 169.728 114.284 169.701 114.348C169.677 114.412 169.664 114.484 169.664 114.565C169.664 114.646 169.677 114.718 169.701 114.782C169.728 114.846 169.764 114.9 169.808 114.944C169.852 114.988 169.902 115.022 169.959 115.047C170.015 115.069 170.075 115.08 170.139 115.08Z" fill="#48A589"/>
<path d="M171.823 113.899H171.852C171.909 113.808 171.985 113.737 172.081 113.686C172.176 113.632 172.286 113.605 172.408 113.605C172.521 113.605 172.621 113.623 172.706 113.66C172.792 113.697 172.862 113.749 172.916 113.818C172.973 113.884 173.014 113.965 173.041 114.061C173.071 114.154 173.086 114.258 173.086 114.374V115.466H172.603V114.432C172.603 114.302 172.574 114.207 172.515 114.145C172.459 114.082 172.375 114.05 172.265 114.05C172.198 114.05 172.14 114.065 172.088 114.094C172.039 114.121 171.996 114.159 171.959 114.208C171.925 114.255 171.898 114.311 171.878 114.377C171.861 114.441 171.852 114.51 171.852 114.583V115.466H171.37V113.664H171.823V113.899Z" fill="#48A589"/>
<path d="M122.202 112.832H122.699V115.466H122.202V112.832Z" fill="#D79C2C"/>
<path d="M123.334 114.076H123.018V113.664H123.334V113.112H123.816V113.664H124.258V114.076H123.816V114.775C123.816 114.816 123.82 114.856 123.828 114.892C123.837 114.927 123.854 114.956 123.879 114.981C123.913 115.02 123.962 115.04 124.026 115.04C124.068 115.04 124.101 115.036 124.126 115.029C124.15 115.019 124.174 115.006 124.196 114.992L124.332 115.415C124.275 115.442 124.214 115.461 124.148 115.474C124.084 115.488 124.013 115.496 123.934 115.496C123.843 115.496 123.761 115.482 123.688 115.455C123.616 115.426 123.556 115.387 123.507 115.338C123.392 115.227 123.334 115.07 123.334 114.867V114.076Z" fill="#D79C2C"/>
<path d="M126.303 115.032C126.22 115.179 126.107 115.298 125.964 115.389C125.824 115.48 125.653 115.525 125.449 115.525C125.312 115.525 125.184 115.502 125.066 115.455C124.951 115.406 124.85 115.339 124.764 115.253C124.678 115.167 124.611 115.067 124.562 114.951C124.515 114.834 124.492 114.705 124.492 114.565C124.492 114.435 124.515 114.312 124.562 114.197C124.608 114.079 124.674 113.977 124.757 113.892C124.84 113.803 124.939 113.733 125.051 113.682C125.167 113.63 125.293 113.605 125.431 113.605C125.575 113.605 125.704 113.629 125.817 113.678C125.93 113.725 126.024 113.791 126.101 113.877C126.177 113.96 126.234 114.06 126.274 114.175C126.313 114.29 126.332 114.415 126.332 114.55C126.332 114.567 126.332 114.582 126.332 114.594C126.33 114.609 126.329 114.623 126.329 114.635C126.326 114.647 126.325 114.661 126.325 114.675H124.967C124.977 114.749 124.996 114.813 125.026 114.867C125.058 114.918 125.096 114.962 125.14 114.999C125.186 115.033 125.237 115.059 125.291 115.076C125.345 115.091 125.4 115.098 125.456 115.098C125.567 115.098 125.658 115.074 125.729 115.025C125.802 114.973 125.86 114.91 125.902 114.834L126.303 115.032ZM125.865 114.333C125.863 114.301 125.851 114.266 125.832 114.226C125.815 114.187 125.788 114.15 125.751 114.116C125.717 114.082 125.672 114.054 125.618 114.031C125.567 114.009 125.504 113.998 125.431 113.998C125.328 113.998 125.237 114.028 125.158 114.087C125.08 114.146 125.024 114.228 124.993 114.333H125.865Z" fill="#D79C2C"/>
<path d="M126.64 113.664H127.093V113.899H127.123C127.179 113.811 127.255 113.74 127.351 113.686C127.449 113.632 127.557 113.605 127.675 113.605C127.812 113.605 127.928 113.637 128.021 113.7C128.114 113.764 128.18 113.843 128.22 113.936C128.276 113.845 128.356 113.768 128.459 113.704C128.562 113.638 128.687 113.605 128.834 113.605C128.945 113.605 129.041 113.623 129.122 113.66C129.203 113.694 129.269 113.743 129.32 113.807C129.374 113.871 129.415 113.948 129.442 114.039C129.469 114.127 129.482 114.224 129.482 114.329V115.466H129V114.418C129 114.172 128.899 114.05 128.698 114.05C128.634 114.05 128.578 114.065 128.529 114.094C128.48 114.121 128.438 114.159 128.404 114.208C128.372 114.255 128.346 114.311 128.326 114.377C128.309 114.444 128.301 114.515 128.301 114.591V115.466H127.818V114.418C127.818 114.172 127.713 114.05 127.502 114.05C127.441 114.05 127.387 114.065 127.34 114.094C127.293 114.121 127.254 114.159 127.222 114.208C127.19 114.255 127.166 114.311 127.148 114.377C127.131 114.444 127.123 114.515 127.123 114.591V115.466H126.64V113.664Z" fill="#D79C2C"/>
<path d="M131.141 113.899H131.171C131.227 113.808 131.303 113.737 131.399 113.686C131.495 113.632 131.604 113.605 131.726 113.605C131.839 113.605 131.939 113.623 132.025 113.66C132.11 113.697 132.18 113.749 132.234 113.818C132.291 113.884 132.333 113.965 132.36 114.061C132.389 114.154 132.404 114.258 132.404 114.374V115.466H131.922V114.432C131.922 114.302 131.892 114.207 131.833 114.146C131.777 114.082 131.693 114.05 131.583 114.05C131.517 114.05 131.458 114.065 131.406 114.094C131.357 114.121 131.314 114.159 131.277 114.208C131.243 114.255 131.216 114.311 131.196 114.377C131.179 114.441 131.171 114.51 131.171 114.583V115.466H130.688V113.664H131.141V113.899Z" fill="#D79C2C"/>
<path d="M133.656 113.605C133.796 113.605 133.924 113.629 134.039 113.678C134.157 113.725 134.257 113.791 134.341 113.877C134.427 113.96 134.493 114.061 134.54 114.179C134.589 114.296 134.613 114.425 134.613 114.565C134.613 114.705 134.589 114.834 134.54 114.951C134.493 115.069 134.427 115.171 134.341 115.257C134.257 115.34 134.157 115.406 134.039 115.455C133.924 115.502 133.796 115.525 133.656 115.525C133.516 115.525 133.387 115.502 133.27 115.455C133.154 115.406 133.054 115.34 132.968 115.257C132.884 115.171 132.818 115.069 132.769 114.951C132.722 114.834 132.699 114.705 132.699 114.565C132.699 114.425 132.722 114.296 132.769 114.179C132.818 114.061 132.884 113.96 132.968 113.877C133.054 113.791 133.154 113.725 133.27 113.678C133.387 113.629 133.516 113.605 133.656 113.605ZM133.656 115.08C133.718 115.08 133.776 115.069 133.833 115.047C133.892 115.022 133.943 114.988 133.987 114.944C134.032 114.9 134.066 114.846 134.091 114.782C134.118 114.718 134.131 114.646 134.131 114.565C134.131 114.484 134.118 114.412 134.091 114.348C134.066 114.284 134.032 114.23 133.987 114.186C133.943 114.142 133.892 114.109 133.833 114.087C133.776 114.062 133.718 114.05 133.656 114.05C133.592 114.05 133.532 114.062 133.476 114.087C133.419 114.109 133.369 114.142 133.325 114.186C133.281 114.23 133.245 114.284 133.218 114.348C133.194 114.412 133.181 114.484 133.181 114.565C133.181 114.646 133.194 114.718 133.218 114.782C133.245 114.846 133.281 114.9 133.325 114.944C133.369 114.988 133.419 115.022 133.476 115.047C133.532 115.069 133.592 115.08 133.656 115.08Z" fill="#D79C2C"/>
<path d="M188.605 111.426C188.605 110.41 189.43 109.586 190.446 109.586H212.533C213.55 109.586 214.374 110.41 214.374 111.426V117.864C214.374 118.88 213.55 119.704 212.533 119.704H190.446C189.43 119.704 188.605 118.88 188.605 117.864V111.426Z" fill="#E8F3FF"/>
<path d="M220.816 111.426C220.816 110.41 221.64 109.586 222.657 109.586H246.585C247.601 109.586 248.425 110.41 248.425 111.426V117.864C248.425 118.88 247.601 119.704 246.585 119.704H222.657C221.64 119.704 220.816 118.88 220.816 117.864V111.426Z" fill="#F6E8FF"/>
<path d="M194.437 115.525C194.283 115.525 194.142 115.501 194.014 115.452C193.889 115.4 193.782 115.327 193.694 115.231C193.605 115.135 193.537 115.02 193.488 114.885C193.439 114.748 193.414 114.592 193.414 114.418V112.832H193.911V114.447C193.911 114.535 193.922 114.616 193.944 114.69C193.966 114.764 193.999 114.827 194.044 114.881C194.088 114.935 194.143 114.978 194.209 115.01C194.275 115.04 194.352 115.054 194.437 115.054C194.526 115.054 194.603 115.04 194.669 115.01C194.736 114.978 194.791 114.935 194.835 114.881C194.879 114.827 194.912 114.764 194.934 114.69C194.956 114.616 194.968 114.535 194.968 114.447V112.832H195.464V114.418C195.464 114.582 195.44 114.733 195.391 114.87C195.344 115.005 195.276 115.122 195.185 115.22C195.096 115.315 194.988 115.39 194.861 115.444C194.736 115.498 194.594 115.525 194.437 115.525Z" fill="#4D91E1"/>
<path d="M196.329 113.899H196.359C196.415 113.808 196.491 113.737 196.587 113.686C196.683 113.632 196.792 113.605 196.915 113.605C197.028 113.605 197.127 113.623 197.213 113.66C197.299 113.697 197.369 113.749 197.423 113.818C197.479 113.884 197.521 113.965 197.548 114.061C197.577 114.154 197.592 114.258 197.592 114.374V115.466H197.11V114.432C197.11 114.302 197.08 114.207 197.021 114.145C196.965 114.082 196.882 114.05 196.771 114.05C196.705 114.05 196.646 114.065 196.594 114.094C196.545 114.121 196.502 114.159 196.466 114.208C196.431 114.255 196.404 114.311 196.385 114.377C196.367 114.441 196.359 114.51 196.359 114.583V115.466H195.877V113.664H196.329V113.899Z" fill="#4D91E1"/>
<path d="M198.259 113.402C198.217 113.402 198.177 113.395 198.138 113.38C198.101 113.363 198.068 113.341 198.038 113.314C198.011 113.285 197.989 113.251 197.972 113.215C197.957 113.178 197.95 113.137 197.95 113.093C197.95 113.049 197.957 113.009 197.972 112.972C197.989 112.935 198.011 112.903 198.038 112.876C198.068 112.847 198.101 112.825 198.138 112.81C198.177 112.793 198.217 112.784 198.259 112.784C198.345 112.784 198.419 112.815 198.48 112.876C198.541 112.935 198.572 113.007 198.572 113.093C198.572 113.179 198.541 113.253 198.48 113.314C198.419 113.373 198.345 113.402 198.259 113.402ZM198.02 115.466V113.664H198.502V115.466H198.02Z" fill="#4D91E1"/>
<path d="M199.124 114.076H198.807V113.664H199.124V113.112H199.606V113.664H200.048V114.076H199.606V114.775C199.606 114.816 199.61 114.856 199.617 114.892C199.627 114.927 199.644 114.956 199.669 114.981C199.703 115.02 199.752 115.04 199.816 115.04C199.858 115.04 199.891 115.036 199.915 115.028C199.94 115.019 199.963 115.006 199.985 114.992L200.121 115.415C200.065 115.442 200.004 115.461 199.937 115.474C199.874 115.488 199.802 115.496 199.724 115.496C199.633 115.496 199.551 115.482 199.477 115.455C199.406 115.426 199.346 115.387 199.297 115.338C199.181 115.227 199.124 115.07 199.124 114.867V114.076Z" fill="#4D91E1"/>
<path d="M200.196 115.834H202.033V116.261H200.196V115.834Z" fill="#4D91E1"/>
<path d="M202.225 113.664H202.678V113.881H202.707C202.751 113.805 202.82 113.74 202.913 113.686C203.006 113.632 203.122 113.605 203.259 113.605C203.375 113.605 203.484 113.629 203.587 113.678C203.692 113.725 203.784 113.791 203.863 113.877C203.944 113.96 204.008 114.061 204.054 114.179C204.101 114.296 204.124 114.425 204.124 114.565C204.124 114.705 204.101 114.833 204.054 114.951C204.008 115.069 203.944 115.171 203.863 115.257C203.784 115.34 203.692 115.406 203.587 115.455C203.484 115.502 203.375 115.525 203.259 115.525C203.122 115.525 203.006 115.498 202.913 115.444C202.82 115.39 202.751 115.325 202.707 115.249H202.678L202.707 115.507V116.261H202.225V113.664ZM203.16 115.08C203.224 115.08 203.284 115.068 203.34 115.043C203.399 115.019 203.451 114.984 203.495 114.94C203.539 114.896 203.575 114.842 203.602 114.778C203.629 114.715 203.642 114.643 203.642 114.565C203.642 114.486 203.629 114.415 203.602 114.352C203.575 114.288 203.539 114.234 203.495 114.19C203.451 114.145 203.399 114.111 203.34 114.087C203.284 114.062 203.224 114.05 203.16 114.05C203.096 114.05 203.035 114.062 202.976 114.087C202.919 114.109 202.869 114.142 202.825 114.186C202.781 114.23 202.745 114.284 202.718 114.348C202.691 114.412 202.678 114.484 202.678 114.565C202.678 114.646 202.691 114.718 202.718 114.782C202.745 114.846 202.781 114.9 202.825 114.944C202.869 114.988 202.919 115.022 202.976 115.047C203.035 115.069 203.096 115.08 203.16 115.08Z" fill="#4D91E1"/>
<path d="M204.414 113.664H204.867V113.914H204.897C204.919 113.87 204.948 113.829 204.985 113.792C205.022 113.755 205.062 113.724 205.107 113.697C205.153 113.67 205.202 113.649 205.254 113.634C205.308 113.619 205.361 113.612 205.412 113.612C205.476 113.612 205.53 113.618 205.574 113.63C205.621 113.643 205.66 113.659 205.692 113.678L205.563 114.116C205.534 114.101 205.5 114.09 205.464 114.083C205.429 114.073 205.386 114.068 205.335 114.068C205.268 114.068 205.208 114.082 205.154 114.109C205.1 114.133 205.054 114.169 205.014 114.215C204.978 114.262 204.948 114.317 204.926 114.381C204.907 114.442 204.897 114.51 204.897 114.583V115.466H204.414V113.664Z" fill="#4D91E1"/>
<path d="M206.182 113.402C206.141 113.402 206.1 113.395 206.061 113.38C206.024 113.363 205.991 113.341 205.961 113.314C205.934 113.285 205.912 113.251 205.895 113.215C205.88 113.178 205.873 113.137 205.873 113.093C205.873 113.049 205.88 113.009 205.895 112.972C205.912 112.935 205.934 112.903 205.961 112.876C205.991 112.847 206.024 112.825 206.061 112.81C206.1 112.793 206.141 112.784 206.182 112.784C206.268 112.784 206.342 112.815 206.403 112.876C206.464 112.935 206.495 113.007 206.495 113.093C206.495 113.179 206.464 113.253 206.403 113.314C206.342 113.373 206.268 113.402 206.182 113.402ZM205.943 115.466V113.664H206.425V115.466H205.943Z" fill="#4D91E1"/>
<path d="M208.56 115.006C208.481 115.158 208.371 115.284 208.229 115.382C208.089 115.477 207.913 115.525 207.702 115.525C207.562 115.525 207.434 115.502 207.316 115.455C207.2 115.406 207.1 115.339 207.014 115.253C206.93 115.167 206.864 115.067 206.815 114.951C206.768 114.833 206.745 114.705 206.745 114.565C206.745 114.425 206.768 114.296 206.815 114.179C206.864 114.061 206.93 113.96 207.014 113.877C207.1 113.791 207.2 113.725 207.316 113.678C207.434 113.629 207.562 113.605 207.702 113.605C207.911 113.605 208.086 113.652 208.229 113.748C208.371 113.844 208.475 113.968 208.542 114.12L208.1 114.304C208.058 114.22 208.004 114.158 207.938 114.116C207.874 114.072 207.793 114.05 207.695 114.05C207.631 114.05 207.571 114.062 207.514 114.087C207.458 114.111 207.408 114.145 207.364 114.19C207.322 114.234 207.289 114.288 207.264 114.352C207.24 114.415 207.227 114.486 207.227 114.565C207.227 114.643 207.24 114.715 207.264 114.778C207.289 114.842 207.322 114.896 207.364 114.94C207.408 114.984 207.458 115.019 207.514 115.043C207.571 115.068 207.631 115.08 207.695 115.08C207.795 115.08 207.88 115.058 207.949 115.014C208.02 114.967 208.076 114.901 208.118 114.815L208.56 115.006Z" fill="#4D91E1"/>
<path d="M210.544 115.032C210.461 115.179 210.348 115.298 210.206 115.389C210.066 115.48 209.894 115.525 209.69 115.525C209.553 115.525 209.425 115.502 209.307 115.455C209.192 115.406 209.091 115.339 209.006 115.253C208.92 115.167 208.852 115.067 208.803 114.951C208.756 114.833 208.733 114.705 208.733 114.565C208.733 114.435 208.756 114.312 208.803 114.197C208.85 114.079 208.915 113.977 208.998 113.892C209.082 113.803 209.18 113.733 209.293 113.682C209.408 113.63 209.534 113.605 209.672 113.605C209.817 113.605 209.945 113.629 210.058 113.678C210.171 113.725 210.266 113.791 210.342 113.877C210.418 113.96 210.476 114.06 210.515 114.175C210.554 114.29 210.574 114.415 210.574 114.55C210.574 114.567 210.574 114.582 210.574 114.594C210.571 114.609 210.57 114.623 210.57 114.635C210.568 114.647 210.566 114.661 210.566 114.675H209.208C209.218 114.749 209.237 114.813 209.267 114.867C209.299 114.918 209.337 114.962 209.381 114.999C209.428 115.033 209.478 115.059 209.532 115.076C209.586 115.091 209.641 115.098 209.698 115.098C209.808 115.098 209.899 115.074 209.97 115.025C210.044 114.973 210.101 114.91 210.143 114.833L210.544 115.032ZM210.106 114.333C210.104 114.301 210.093 114.266 210.073 114.226C210.056 114.187 210.029 114.15 209.992 114.116C209.958 114.082 209.914 114.054 209.86 114.031C209.808 114.009 209.745 113.998 209.672 113.998C209.569 113.998 209.478 114.028 209.399 114.087C209.321 114.145 209.266 114.228 209.234 114.333H210.106Z" fill="#4D91E1"/>
<path d="M226.603 112.832H227.099V115.466H226.603V112.832Z" fill="#884BAC"/>
<path d="M227.735 114.076H227.418V113.664H227.735V113.112H228.217V113.664H228.659V114.076H228.217V114.775C228.217 114.816 228.221 114.856 228.228 114.892C228.238 114.927 228.255 114.956 228.279 114.981C228.314 115.02 228.363 115.04 228.427 115.04C228.468 115.04 228.502 115.036 228.526 115.029C228.551 115.019 228.574 115.006 228.596 114.992L228.732 115.415C228.676 115.442 228.614 115.461 228.548 115.474C228.484 115.488 228.413 115.496 228.335 115.496C228.244 115.496 228.162 115.482 228.088 115.455C228.017 115.426 227.957 115.387 227.908 115.338C227.792 115.227 227.735 115.07 227.735 114.867V114.076Z" fill="#884BAC"/>
<path d="M230.703 115.032C230.62 115.179 230.507 115.298 230.365 115.389C230.225 115.48 230.053 115.525 229.849 115.525C229.712 115.525 229.584 115.502 229.467 115.455C229.351 115.406 229.251 115.339 229.165 115.253C229.079 115.167 229.011 115.067 228.962 114.951C228.916 114.834 228.892 114.705 228.892 114.565C228.892 114.435 228.916 114.312 228.962 114.197C229.009 114.079 229.074 113.977 229.157 113.892C229.241 113.803 229.339 113.733 229.452 113.682C229.567 113.63 229.694 113.605 229.831 113.605C229.976 113.605 230.105 113.629 230.218 113.678C230.33 113.725 230.425 113.791 230.501 113.877C230.577 113.96 230.635 114.06 230.674 114.175C230.713 114.29 230.733 114.415 230.733 114.55C230.733 114.567 230.733 114.582 230.733 114.594C230.73 114.609 230.729 114.623 230.729 114.635C230.727 114.647 230.726 114.661 230.726 114.675H229.367C229.377 114.749 229.397 114.813 229.426 114.867C229.458 114.918 229.496 114.962 229.54 114.999C229.587 115.033 229.637 115.059 229.691 115.076C229.745 115.091 229.8 115.098 229.857 115.098C229.967 115.098 230.058 115.074 230.129 115.025C230.203 114.973 230.26 114.91 230.302 114.834L230.703 115.032ZM230.265 114.333C230.263 114.301 230.252 114.266 230.232 114.226C230.215 114.187 230.188 114.15 230.151 114.116C230.117 114.082 230.073 114.054 230.019 114.031C229.967 114.009 229.905 113.998 229.831 113.998C229.728 113.998 229.637 114.028 229.559 114.087C229.48 114.146 229.425 114.228 229.393 114.333H230.265Z" fill="#884BAC"/>
<path d="M231.041 113.664H231.494V113.899H231.523C231.58 113.811 231.656 113.74 231.751 113.686C231.849 113.632 231.957 113.605 232.075 113.605C232.213 113.605 232.328 113.637 232.421 113.7C232.515 113.764 232.581 113.843 232.62 113.936C232.677 113.845 232.756 113.768 232.859 113.704C232.962 113.638 233.088 113.605 233.235 113.605C233.345 113.605 233.441 113.623 233.522 113.66C233.603 113.694 233.669 113.743 233.721 113.807C233.775 113.871 233.815 113.948 233.842 114.039C233.869 114.127 233.883 114.224 233.883 114.329V115.466H233.4V114.418C233.4 114.172 233.3 114.05 233.099 114.05C233.035 114.05 232.978 114.065 232.929 114.094C232.88 114.121 232.839 114.159 232.804 114.208C232.772 114.255 232.746 114.311 232.727 114.377C232.71 114.444 232.701 114.515 232.701 114.591V115.466H232.219V114.418C232.219 114.172 232.113 114.05 231.902 114.05C231.841 114.05 231.787 114.065 231.74 114.094C231.694 114.121 231.654 114.159 231.622 114.208C231.591 114.255 231.566 114.311 231.549 114.377C231.532 114.444 231.523 114.515 231.523 114.591V115.466H231.041V113.664Z" fill="#884BAC"/>
<path d="M234.074 115.834H235.911V116.261H234.074V115.834Z" fill="#884BAC"/>
<path d="M236.132 114.076H235.816V113.664H236.132V113.112H236.615V113.664H237.056V114.076H236.615V114.775C236.615 114.816 236.618 114.856 236.626 114.892C236.635 114.927 236.653 114.956 236.677 114.981C236.711 115.02 236.761 115.04 236.824 115.04C236.866 115.04 236.899 115.036 236.924 115.029C236.948 115.019 236.972 115.006 236.994 114.992L237.13 115.415C237.073 115.442 237.012 115.461 236.946 115.474C236.882 115.488 236.811 115.496 236.732 115.496C236.642 115.496 236.559 115.482 236.486 115.455C236.415 115.426 236.354 115.387 236.305 115.338C236.19 115.227 236.132 115.07 236.132 114.867V114.076Z" fill="#884BAC"/>
<path d="M238.247 113.605C238.387 113.605 238.515 113.629 238.63 113.678C238.748 113.725 238.848 113.791 238.932 113.877C239.018 113.96 239.084 114.061 239.131 114.179C239.18 114.296 239.204 114.425 239.204 114.565C239.204 114.705 239.18 114.834 239.131 114.951C239.084 115.069 239.018 115.171 238.932 115.257C238.848 115.34 238.748 115.406 238.63 115.455C238.515 115.502 238.387 115.525 238.247 115.525C238.107 115.525 237.978 115.502 237.861 115.455C237.745 115.406 237.645 115.34 237.559 115.257C237.475 115.171 237.409 115.069 237.36 114.951C237.313 114.834 237.29 114.705 237.29 114.565C237.29 114.425 237.313 114.296 237.36 114.179C237.409 114.061 237.475 113.96 237.559 113.877C237.645 113.791 237.745 113.725 237.861 113.678C237.978 113.629 238.107 113.605 238.247 113.605ZM238.247 115.08C238.308 115.08 238.367 115.069 238.424 115.047C238.483 115.022 238.534 114.988 238.578 114.944C238.623 114.9 238.657 114.846 238.681 114.782C238.708 114.718 238.722 114.646 238.722 114.565C238.722 114.484 238.708 114.412 238.681 114.348C238.657 114.284 238.623 114.23 238.578 114.186C238.534 114.142 238.483 114.109 238.424 114.087C238.367 114.062 238.308 114.05 238.247 114.05C238.183 114.05 238.123 114.062 238.067 114.087C238.01 114.109 237.96 114.142 237.916 114.186C237.872 114.23 237.836 114.284 237.809 114.348C237.784 114.412 237.772 114.484 237.772 114.565C237.772 114.646 237.784 114.718 237.809 114.782C237.836 114.846 237.872 114.9 237.916 114.944C237.96 114.988 238.01 115.022 238.067 115.047C238.123 115.069 238.183 115.08 238.247 115.08Z" fill="#884BAC"/>
<path d="M239.659 114.076H239.342V113.664H239.659V113.112H240.141V113.664H240.583V114.076H240.141V114.775C240.141 114.816 240.145 114.856 240.152 114.892C240.162 114.927 240.179 114.956 240.204 114.981C240.238 115.02 240.287 115.04 240.351 115.04C240.393 115.04 240.426 115.036 240.45 115.029C240.475 115.019 240.498 115.006 240.52 114.992L240.656 115.415C240.6 115.442 240.539 115.461 240.472 115.474C240.409 115.488 240.337 115.496 240.259 115.496C240.168 115.496 240.086 115.482 240.012 115.455C239.941 115.426 239.881 115.387 239.832 115.338C239.717 115.227 239.659 115.07 239.659 114.867V114.076Z" fill="#884BAC"/>
<path d="M242.013 115.275H241.984C241.927 115.344 241.859 115.403 241.778 115.452C241.699 115.501 241.597 115.525 241.472 115.525C241.379 115.525 241.291 115.509 241.207 115.477C241.126 115.448 241.055 115.406 240.994 115.352C240.932 115.298 240.884 115.233 240.85 115.157C240.816 115.081 240.799 114.998 240.799 114.907C240.799 114.814 240.817 114.73 240.854 114.657C240.891 114.581 240.942 114.516 241.008 114.462C241.075 114.408 241.152 114.367 241.24 114.341C241.331 114.311 241.429 114.296 241.535 114.296C241.653 114.296 241.75 114.306 241.826 114.326C241.902 114.343 241.964 114.361 242.013 114.381V114.326C242.013 114.23 241.975 114.152 241.899 114.09C241.823 114.027 241.729 113.995 241.616 113.995C241.449 113.995 241.308 114.065 241.192 114.204L240.843 113.965C241.034 113.725 241.296 113.605 241.627 113.605C241.907 113.605 242.12 113.671 242.267 113.803C242.415 113.933 242.488 114.127 242.488 114.385V115.466H242.013V115.275ZM242.013 114.734C241.957 114.707 241.898 114.686 241.837 114.672C241.778 114.654 241.713 114.646 241.642 114.646C241.526 114.646 241.437 114.672 241.373 114.723C241.312 114.772 241.281 114.834 241.281 114.907C241.281 114.981 241.31 115.04 241.369 115.084C241.431 115.128 241.5 115.15 241.579 115.15C241.643 115.15 241.702 115.139 241.756 115.117C241.81 115.092 241.855 115.062 241.892 115.025C241.931 114.986 241.961 114.941 241.98 114.892C242.002 114.841 242.013 114.788 242.013 114.734Z" fill="#884BAC"/>
<path d="M242.872 115.466V112.832H243.354V115.466H242.872Z" fill="#884BAC"/>
<path fill-rule="evenodd" clip-rule="evenodd" d="M142.131 106.636C142.436 106.636 142.683 106.883 142.683 107.188V185.831C142.683 186.136 142.436 186.383 142.131 186.383C141.826 186.383 141.579 186.136 141.579 185.831V107.188C141.579 106.883 141.826 106.636 142.131 106.636Z" fill="#EAEFFF"/>
<path fill-rule="evenodd" clip-rule="evenodd" d="M185.846 106.636C186.151 106.636 186.398 106.883 186.398 107.188V185.831C186.398 186.136 186.151 186.383 185.846 186.383C185.541 186.383 185.294 186.136 185.294 185.831V107.188C185.294 106.883 185.541 106.636 185.846 106.636Z" fill="#EAEFFF"/>
<path fill-rule="evenodd" clip-rule="evenodd" d="M218.055 106.636C218.36 106.636 218.607 106.883 218.607 107.188V185.831C218.607 186.136 218.36 186.383 218.055 186.383C217.75 186.383 217.503 186.136 217.503 185.831V107.188C217.503 106.883 217.75 106.636 218.055 106.636Z" fill="#EAEFFF"/>
<path d="M77.252 164.597L77.252 171.193C77.252 172.013 78.2432 172.423 78.823 171.844L82.123 168.545C82.4824 168.186 82.4824 167.604 82.123 167.245L78.823 163.946C78.2432 163.367 77.252 163.777 77.252 164.597Z" fill="#DAE0F8"/>
</g>
<defs>
<filter id="filter0_d_207_4843" x="86.7002" y="71.8723" width="191.849" height="162.333" filterUnits="userSpaceOnUse" color-interpolation-filters="sRGB">
<feFlood flood-opacity="0" result="BackgroundImageFix"/>
<feColorMatrix in="SourceAlpha" type="matrix" values="0 0 0 0 0 0 0 0 0 0 0 0 0 0 0 0 0 0 127 0" result="hardAlpha"/>
<feOffset dy="4"/>
<feGaussianBlur stdDeviation="10"/>
<feComposite in2="hardAlpha" operator="out"/>
<feColorMatrix type="matrix" values="0 0 0 0 0.243137 0 0 0 0 0.294118 0 0 0 0 0.580392 0 0 0 0.1 0"/>
<feBlend mode="normal" in2="BackgroundImageFix" result="effect1_dropShadow_207_4843"/>
<feBlend mode="normal" in="SourceGraphic" in2="effect1_dropShadow_207_4843" result="shape"/>
</filter>
<linearGradient id="paint0_linear_207_4843" x1="176.642" y1="92.0114" x2="244.259" y2="43.2275" gradientUnits="userSpaceOnUse">
<stop stop-color="#6A7DCB"/>
<stop offset="1" stop-color="#6A7DCB" stop-opacity="0"/>
</linearGradient>
<linearGradient id="paint1_linear_207_4843" x1="124.185" y1="168.355" x2="57.0033" y2="168.355" gradientUnits="userSpaceOnUse">
<stop stop-color="#2F50D7" stop-opacity="0"/>
<stop offset="1" stop-color="#2F50D7"/>
</linearGradient>
<linearGradient id="paint2_linear_207_4843" x1="43.7153" y1="38.5884" x2="81.5237" y2="127.597" gradientUnits="userSpaceOnUse">
<stop stop-color="#E9EDFF"/>
<stop offset="1" stop-color="#E1D6FF"/>
</linearGradient>
</defs>
</svg>
