<svg width="192" height="202" viewBox="0 0 192 202" fill="none" xmlns="http://www.w3.org/2000/svg">
<g clip-path="url(#clip0_207_4967)">
<path d="M128.509 67.3681C154.659 78.6148 166.757 108.986 155.527 135.174C144.297 161.362 113.97 173.478 87.8208 162.232C61.6716 150.985 49.5736 120.613 60.8036 94.4254C72.0336 68.2374 102.36 56.1213 128.509 67.3681Z" fill="#F0F3FF"/>
<path d="M116.574 143.433C116.791 143.379 117.062 143.324 117.333 143.27C117.496 143.216 118.093 142.998 118.147 142.455C118.256 141.749 117.822 141.097 117.713 140.445C117.713 140.445 116.899 140.988 116.899 141.314C116.899 142.455 116.737 143.27 116.574 143.433ZM152.271 88.1229C152.217 88.0685 152.163 87.9599 152.108 87.9055C152.217 87.9599 152.217 88.0685 152.271 88.1229ZM152.163 87.9055C146.629 78.8321 138.274 71.3886 127.695 67.0421C125.634 66.1727 123.572 65.5208 121.456 64.9231C121.348 64.9231 121.131 64.8688 121.022 64.8688C121.185 64.9774 121.402 65.0318 121.565 65.0861C121.185 65.0318 120.697 64.9231 120.371 64.9231C120.86 65.4121 123.681 66.6617 124.603 67.0421C124.386 66.9877 124.169 66.9877 123.952 66.9877C123.952 66.9877 123.952 66.9877 124.549 67.5854C124.44 67.694 124.332 67.8027 124.223 67.857C124.332 68.02 124.332 68.02 124.657 68.4547C124.657 68.4547 124.766 68.509 124.712 68.6177C124.278 69.813 122.324 69.161 122.162 70.6823C122.053 71.4973 122.65 72.0949 122.813 72.8012C122.975 73.6706 122.704 74.4855 122.813 75.3005C122.975 76.9305 124.06 78.3431 123.843 80.0817C123.735 81.0597 122.433 81.766 123.138 82.9613C124.549 85.2433 133.283 86.1669 135.128 85.0803C135.291 84.9716 135.453 84.7543 135.562 84.6456C135.562 84.4283 135.562 84.1023 135.508 83.885C136.267 84.211 136.864 84.537 137.786 84.6456C139.142 84.863 139.088 82.6353 140.553 82.9613C141.15 83.07 142.126 83.7763 142.506 83.9936C143.482 84.6456 144.459 85.2976 145.056 85.1889C145.761 85.0259 145.544 84.1023 146.249 83.9393C146.304 83.9393 146.412 83.9936 146.466 83.9936C145.49 82.255 147.226 82.5267 147.226 82.5267C148.257 82.8527 150.264 84.9716 151.946 87.6339C152.054 87.7425 152.108 87.8512 152.163 87.9055ZM116.954 163.101C118.201 162.34 117.767 160.439 119.232 159.787C119.612 159.624 123.464 159.026 123.03 160.384C122.921 160.71 122.758 160.982 122.65 161.308C122.813 161.199 122.975 161.091 123.138 160.928C123.192 160.982 123.192 161.036 123.247 161.036C123.789 160.819 123.898 160.765 125.308 160.439C126.773 160.113 126.773 160.113 126.882 159.895C126.827 159.841 126.773 159.841 126.719 159.787C126.719 159.732 126.719 159.678 126.665 159.624C128.184 158.754 129.431 158.102 128.563 157.451C129.16 157.233 129.269 157.179 129.757 156.853C130.462 157.07 131.005 156.527 131.656 156.473C131.656 156.473 132.849 154.734 133.446 154.191C133.337 154.136 133.229 154.082 133.12 154.028C133.175 153.973 133.229 153.865 133.283 153.81C133.283 153.756 133.229 153.702 133.229 153.647C133.392 153.647 133.5 153.702 133.826 153.865C133.934 153.702 134.097 153.539 134.206 153.376C134.694 152.615 134.694 151.637 135.236 150.931C138.057 147.127 138.057 147.127 138.112 146.91C138.491 146.041 138.654 146.041 138.817 145.986C138.817 146.041 138.871 146.095 138.925 146.149C139.631 144.791 139.414 144.682 137.623 143.27C137.732 143.216 137.84 143.161 137.949 143.161C137.244 141.912 135.508 142.129 134.748 140.934C134.314 140.282 134.531 139.412 133.989 138.76C133.934 138.706 133.88 138.652 133.88 138.652C133.717 138.543 133.283 138.326 132.415 139.793C128.835 145.769 128.835 145.769 126.665 147.236C124.929 148.431 124.929 148.431 122.921 146.258C122.65 147.182 122.053 147.942 121.836 148.866C120.914 147.997 122.324 147.182 122.433 146.258C122.053 146.475 122.053 146.475 121.673 147.562C121.456 147.182 121.673 146.801 121.673 146.367C121.619 146.421 121.565 146.421 121.511 146.475C120.588 146.095 121.022 144.628 119.937 144.411C119.666 144.356 119.666 144.356 117.767 145.715C117.713 145.443 117.767 145.389 117.93 145.28C117.876 145.28 117.822 145.226 117.822 145.171C117.713 145.226 117.659 145.334 117.55 145.389C117.333 145.28 117.333 145.28 117.062 144.737C116.411 145.932 115.109 146.584 114.404 147.725C113.644 148.975 112.993 150.279 112.179 151.474C112.125 151.583 112.017 151.746 111.908 151.854C110.064 154.354 109.901 154.897 109.738 156.255C109.738 156.201 109.792 156.147 109.792 156.092C109.792 156.147 109.738 156.255 109.738 156.31V156.364C109.738 156.418 109.738 156.473 109.684 156.473C109.684 156.581 109.738 157.07 110.226 157.505L112.179 159.298C112.776 159.841 113.753 159.406 114.349 160.113C114.512 160.33 114.512 160.547 114.458 160.928C114.349 161.688 114.512 161.743 115.706 162.069C116.737 162.34 116.845 162.395 117.062 162.666C117.062 162.721 117.062 162.775 117.062 162.884C117.008 162.938 116.899 163.047 116.791 163.101C116.899 163.101 116.899 163.101 116.954 163.101ZM146.304 88.5575C146.466 88.5575 146.683 88.6662 146.846 88.7749C147.497 89.2095 148.094 89.8072 148.745 90.2418C149.07 90.4591 149.396 90.5678 149.721 90.7851C150.535 91.3285 150.535 91.3285 150.698 91.4915C150.806 91.6001 150.915 91.8174 150.752 92.0891C150.644 92.4151 150.264 92.4694 150.101 92.7954V92.7411C150.047 92.5781 150.047 92.5781 149.45 92.5781C149.504 92.4694 149.504 92.4151 149.559 92.3608C149.016 92.0891 148.853 92.0891 147.931 92.3608C147.063 92.6324 142.072 92.7954 141.963 90.5678C141.909 89.8615 142.452 89.5355 142.777 89.3725C143.265 89.2638 146.249 88.5575 146.304 88.5575ZM150.21 92.6868C150.21 92.7411 150.155 92.7411 150.155 92.7411C150.21 92.7411 150.21 92.6868 150.21 92.6868ZM77.8383 74.4855L78.3265 74.4312C78.3265 74.4312 78.3265 74.4312 78.3265 74.4855C78.3265 74.5399 77.4043 75.5178 77.4585 76.6045C77.2958 77.5825 77.2958 77.5825 76.6448 78.2344C76.6448 78.2344 76.6448 78.2344 76.8075 78.2344C76.8075 78.2344 78.5978 80.7881 78.435 82.2007C78.435 82.2007 77.8383 84.1566 77.133 84.6456C77.133 84.6456 76.5905 85.7866 75.9395 88.3945C77.0788 88.5032 77.35 88.7749 77.5128 88.9379C77.8383 89.2638 79.4658 94.7514 79.4658 94.7514C79.4658 95.023 78.8148 96.653 77.35 96.979C78.001 96.9247 78.5978 96.7073 79.2488 96.653C80.9849 96.49 82.0156 98.1743 80.1711 100.348C81.5816 100.348 81.5274 100.511 81.3104 101.978C81.4189 102.032 81.4189 102.032 82.7752 101.978C83.1007 101.706 83.2634 101.815 83.4262 101.923C82.9922 102.304 82.9922 102.304 82.9379 102.358C82.9922 102.412 82.9922 102.467 83.0464 102.521C83.1549 102.467 83.2634 102.358 83.3177 102.249C83.4262 102.304 83.5889 102.412 83.7517 102.521C84.457 102.956 84.5655 103.988 85.3792 104.368C86.0302 104.64 86.4643 104.042 87.0068 103.933C87.1695 103.879 87.3865 103.933 87.5493 104.042C87.6578 104.096 87.7663 104.151 87.8205 104.205C88.5258 104.64 88.9056 105.4 89.6108 105.781C90.1534 106.107 90.8586 105.944 91.4011 106.27C91.4011 106.324 91.4011 106.433 91.3469 106.487C92.1607 105.944 93.1914 106.487 94.0595 106.052C94.1137 106.378 94.1137 106.704 94.1137 107.03C94.2765 107.03 94.4392 107.03 94.602 107.085C94.4935 107.139 94.3307 107.193 94.2222 107.248C94.2222 107.302 94.2222 107.411 94.2222 107.465C94.0595 107.411 93.8425 107.411 93.6797 107.411C93.6254 107.519 93.4627 107.628 93.2999 107.628C93.2999 107.682 93.2457 107.791 93.2457 107.845C93.1914 107.845 93.0829 107.845 93.0287 107.791C93.0287 107.737 92.9744 107.628 92.9744 107.574C92.8659 107.845 92.5404 107.9 92.3777 108.117C92.2149 108.117 92.0522 108.117 91.8894 108.063C91.8351 108.008 91.8352 107.954 91.7809 107.9C91.5096 108.008 91.2384 108.226 90.9129 108.226C91.0756 108.063 91.2926 107.9 91.2384 107.954C91.1299 107.9 91.0214 107.9 90.9671 107.845C90.9129 107.9 90.9129 107.954 90.8586 108.008C90.0448 108.008 90.0448 108.008 90.0448 108.008C90.2076 107.954 90.3704 107.845 90.5331 107.791C89.5566 107.954 89.5566 107.954 89.3938 107.954V108.008C88.6886 108.008 88.0918 107.737 87.4408 107.628C87.495 107.682 87.5493 107.682 87.6035 107.737C88.146 107.954 88.3631 108.008 88.6343 108.063C88.3088 108.117 88.2546 108.117 87.4408 108.063L87.2238 107.954C87.1153 108.008 86.9525 108.008 86.844 108.008C86.6813 108.008 86.6813 108.008 86.2473 108.063C86.41 107.737 86.5185 107.737 87.0068 107.682C86.5728 107.682 86.1388 107.465 85.6505 107.574C85.5962 107.519 85.542 107.465 85.4877 107.465C85.2707 107.682 84.9452 107.682 84.7282 107.9C84.1314 107.737 84.1314 107.737 83.9144 107.628C83.9687 107.628 84.0772 107.574 84.1314 107.574C84.0772 107.519 84.0229 107.465 84.0229 107.411C83.2634 107.411 83.2634 107.411 83.0464 107.574C83.0464 107.519 82.9922 107.411 82.9922 107.356C82.8837 107.302 82.6667 107.248 82.5582 107.193C82.9379 107.085 83.3719 107.248 83.7517 107.03C83.6974 107.03 83.6974 107.03 82.9922 106.813C83.0464 106.759 83.1007 106.704 83.1549 106.65C82.7209 106.596 81.5274 106.487 80.6594 106.596C81.0391 106.704 81.3646 106.867 81.7444 106.922C81.7986 107.03 81.8529 107.193 81.8529 107.356C80.8221 107.411 80.7136 107.248 80.4966 106.976C79.8456 107.411 76.048 107.085 75.9937 107.085C74.6917 106.922 73.6609 106.052 72.4131 105.781C71.1654 105.509 69.8091 105.618 68.5613 105.455C68.1815 105.4 67.7475 105.292 67.3678 105.237C63.6244 104.151 62.3766 106.378 59.2843 112.844C58.4163 114.257 58.4163 114.257 57.1685 115.235C57.1685 115.398 57.1685 115.615 57.1685 115.778C56.7345 115.072 56.7345 114.365 56.626 113.442V113.17C56.843 107.193 58.0908 101.108 60.4778 95.2404C61.8884 91.8175 63.5702 88.6662 65.5775 85.7323C66.0657 85.0803 66.1742 84.9716 66.3912 84.7C66.337 84.7543 66.2827 84.863 66.2827 84.9173C66.337 84.863 66.3912 84.8086 66.4455 84.7C66.3912 84.8086 66.2827 85.0259 66.1742 85.1346C66.7167 84.2653 66.771 84.2653 67.0965 84.048C67.0965 84.1566 67.0422 84.3196 67.0422 84.374C67.8018 82.6353 69.8633 80.6251 69.9176 80.6251C70.8941 79.7014 70.8941 79.7014 71.4366 79.1581C71.9249 78.6691 74.746 75.7352 77.8383 74.4855ZM92.0522 107.085C92.1607 107.193 92.1607 107.193 92.1064 107.574C92.3777 107.302 92.5947 107.248 92.9744 107.302C92.8659 107.193 92.7574 107.193 92.5404 107.193C92.4862 107.085 92.5404 107.03 92.6489 106.976C92.5404 106.922 92.5404 106.922 92.2692 106.65C92.2149 106.65 92.2149 106.704 92.1607 106.759C91.9979 107.03 91.7266 106.813 91.5639 106.704C91.5639 106.813 91.6181 106.813 91.6181 106.922C91.6181 106.922 91.8894 106.922 92.0522 107.085ZM98.2368 103.282C96.8805 103.662 97.6401 106.161 98.0198 106.976C98.1283 107.248 98.3453 107.465 98.4538 107.737C98.6166 108.117 98.6708 108.606 98.8878 108.986C99.1048 109.421 99.5931 110.29 100.136 110.236C100.298 111.757 98.9963 112.79 98.5081 114.094C98.2368 114.854 98.2368 115.561 98.7793 116.213C98.9421 116.43 99.2133 116.539 99.3218 116.81C99.4846 117.136 99.3761 117.571 99.5931 117.951C99.8101 118.331 100.244 118.386 100.461 118.929C100.787 119.635 101.546 120.559 101.655 121.428C102.143 121.483 102.631 121.483 103.119 121.428C103.716 121.374 103.933 120.939 104.476 120.776C105.127 120.613 105.995 121.048 106.646 121.102C107.405 121.102 108.219 121.102 108.979 121.102C109.901 121.102 110.009 121.374 110.498 122.08C111.203 123.113 111.149 123.656 110.281 124.362C109.792 124.797 109.25 125.069 109.141 125.775C109.033 126.644 109.521 126.59 110.172 126.59C110.877 126.59 111.528 126.699 112.125 126.753C112.776 126.807 113.59 126.536 114.132 126.264C115.326 125.666 116.628 125.884 117.767 125.177C118.527 124.743 118.961 124.254 119.558 123.656C120.209 123.058 121.022 122.787 121.782 122.298C122.379 121.863 123.192 121.537 123.626 120.994C124.169 120.287 124.82 119.527 125.308 118.766C125.797 118.005 126.285 117.408 126.122 116.43C126.014 115.669 125.58 115.398 125.2 114.854C124.82 114.311 124.82 113.605 124.549 113.007C124.169 112.083 123.789 111.377 123.789 110.399C123.789 109.149 123.952 107.791 123.626 106.596C123.409 105.563 122.758 104.585 122.162 103.716C121.836 103.227 121.565 103.064 121.131 102.684C120.588 102.249 120.154 101.869 119.558 101.434C119.124 101.108 118.798 100.402 118.256 100.239C117.713 100.022 116.845 100.348 116.248 100.239C115.652 100.13 115.218 100.076 114.729 99.8043C114.512 99.6413 114.349 99.3696 114.132 99.2609C113.698 99.0436 113.156 99.0436 112.613 98.8806C111.854 98.6633 111.257 98.3373 110.443 98.2286C109.25 98.12 108.273 98.2286 107.568 99.2066C107.405 99.4239 107.405 99.6413 107.243 99.8586C107.08 100.13 106.7 100.293 106.592 100.565C106.32 101.326 106.7 102.467 106.429 103.227C106.212 103.716 105.615 104.205 105.344 104.585C105.072 105.02 104.964 105.618 104.584 106.052C104.313 106.378 103.879 107.03 103.553 107.248C102.251 108.063 100.624 107.03 99.8101 106.052C99.5931 105.835 99.4303 105.455 99.2133 105.237C99.0506 105.074 98.7251 105.02 98.5623 104.857C98.1826 104.422 98.3996 103.825 98.2368 103.282Z" fill="url(#paint0_linear_207_4967)"/>
</g>
<path fill-rule="evenodd" clip-rule="evenodd" d="M49.7098 26.3283C50.3304 26.2902 50.9595 26.2791 51.5955 26.2932C52.0861 26.3041 52.4759 26.7485 52.4659 27.2859C52.456 27.8232 52.0502 28.25 51.5595 28.2391C50.966 28.226 50.3822 28.2364 49.8092 28.2716C49.3192 28.3016 48.8997 27.891 48.8723 27.3544C48.8448 26.8178 49.2198 26.3584 49.7098 26.3283ZM56.1232 27.7524C56.2178 27.2251 56.6849 26.8816 57.1665 26.9853C57.767 27.1146 58.371 27.2605 58.9773 27.4218C59.4542 27.5487 59.7469 28.0749 59.631 28.5972C59.5152 29.1195 59.0347 29.44 58.5578 29.3131C57.9756 29.1582 57.3972 29.0185 56.8237 28.895C56.3421 28.7914 56.0285 28.2798 56.1232 27.7524ZM45.2657 28.124C45.437 28.6277 45.2031 29.1881 44.7433 29.3757C44.2071 29.5945 43.687 29.8465 43.184 30.1331C42.7486 30.3812 42.2121 30.1958 41.9855 29.7191C41.759 29.2423 41.9283 28.6547 42.3636 28.4066C42.9335 28.0818 43.5205 27.7977 44.1228 27.5519C44.5826 27.3643 45.0943 27.6204 45.2657 28.124ZM63.1505 29.7713C63.3163 29.2654 63.8252 29.0025 64.2871 29.184C64.8631 29.4104 65.4394 29.6476 66.0152 29.8947C66.4722 30.0908 66.6974 30.6554 66.5184 31.1558C66.3394 31.6562 65.8238 31.9029 65.3669 31.7069C64.8063 31.4664 64.2461 31.2358 63.6868 31.0159C63.2248 30.8344 62.9848 30.2771 63.1505 29.7713ZM39.1203 32.2271C39.4932 32.5765 39.5369 33.1908 39.2179 33.5991C39.0322 33.8368 38.8506 34.0837 38.6734 34.3399C38.5044 34.5842 38.3418 34.8322 38.1856 35.0838C37.9097 35.5283 37.357 35.6436 36.9511 35.3414C36.5453 35.0393 36.44 34.434 36.7159 33.9895C36.8892 33.7104 37.0695 33.4354 37.2568 33.1646C37.455 32.878 37.6586 32.6012 37.8674 32.3339C38.1865 31.9255 38.7474 31.8777 39.1203 32.2271ZM69.8869 32.7689C70.099 32.2842 70.6297 32.0795 71.0723 32.3118C71.6243 32.6014 72.1741 32.898 72.7209 33.2007C73.1589 33.4431 73.3345 34.0285 73.1131 34.5082C72.8917 34.9879 72.3572 35.1802 71.9192 34.9377C71.3832 34.641 70.8447 34.3505 70.3044 34.067C69.8618 33.8348 69.6749 33.2536 69.8869 32.7689ZM76.3464 36.4316C76.5925 35.9665 77.1362 35.808 77.5608 36.0775C78.0918 36.4144 78.6178 36.7552 79.1382 37.0989C79.5584 37.3765 79.6936 37.9746 79.4402 38.4348C79.1867 38.8951 78.6406 39.0431 78.2203 38.7655C77.7087 38.4276 77.1916 38.0926 76.6698 37.7615C76.2452 37.492 76.1004 36.8966 76.3464 36.4316ZM35.4568 38.773C35.9255 38.9323 36.1875 39.4776 36.042 39.9909C35.8791 40.5653 35.7384 41.1532 35.6195 41.7545C35.5156 42.2797 35.0425 42.6133 34.5629 42.4995C34.0832 42.3857 33.7787 41.8676 33.8826 41.3423C34.0122 40.6873 34.166 40.0442 34.3447 39.4138C34.4902 38.9005 34.9881 38.6136 35.4568 38.773ZM82.5438 40.6054C82.8183 40.1599 83.3706 40.0424 83.7774 40.343C84.2902 40.7219 84.7941 41.1012 85.2885 41.48C85.6906 41.7881 85.7885 42.3949 85.5072 42.8352C85.2259 43.2756 84.6718 43.3828 84.2697 43.0747C83.7835 42.7022 83.2878 42.3291 82.7834 41.9564C82.3766 41.6558 82.2693 41.0509 82.5438 40.6054ZM88.4578 45.225C88.7608 44.8022 89.3194 44.7285 89.7055 45.0603C90.2006 45.4858 90.6793 45.9063 91.1401 46.3201C91.5196 46.6609 91.575 47.2741 91.2638 47.6897C90.9526 48.1053 90.3927 48.1659 90.0132 47.8252C89.5625 47.4204 89.0938 47.0086 88.6083 46.5914C88.2222 46.2596 88.1549 45.6479 88.4578 45.225ZM34.2311 46.2866C34.7219 46.2841 35.1216 46.7177 35.1239 47.2552C35.1265 47.867 35.1461 48.4887 35.1825 49.12C35.2134 49.6564 34.8414 50.1187 34.3516 50.1525C33.8618 50.1864 33.4397 49.779 33.4088 49.2426C33.3704 48.5751 33.3495 47.9155 33.3467 47.2643C33.3444 46.7269 33.7403 46.2892 34.2311 46.2866ZM94.0247 50.3722C94.3706 49.9909 94.9332 49.9889 95.2814 50.3676C95.5059 50.6119 95.7198 50.8506 95.9225 51.0831C96.2614 51.4719 96.2483 52.0879 95.8934 52.459C95.5384 52.8301 94.9759 52.8158 94.637 52.4271C94.446 52.2079 94.2432 51.9816 94.0289 51.7485C93.6807 51.3697 93.6788 50.7535 94.0247 50.3722ZM34.83 53.9072C35.3107 53.799 35.7805 54.1381 35.8793 54.6646C35.9941 55.2763 36.1216 55.8948 36.2615 56.5196C36.3785 57.0416 36.0869 57.5686 35.6102 57.6966C35.1336 57.8247 34.6524 57.5053 34.5355 56.9833C34.3904 56.3355 34.2579 55.6931 34.1385 55.0563C34.0397 54.5299 34.3493 54.0154 34.83 53.9072ZM36.6102 61.362C37.0739 61.1861 37.5801 61.4552 37.7407 61.963C37.9236 62.5413 38.1155 63.1238 38.3162 63.7103C38.4885 64.2136 38.2555 64.7745 37.796 64.9631C37.3364 65.1517 36.8243 64.8967 36.6521 64.3934C36.4463 63.7921 36.2493 63.1942 36.0614 62.6C35.9008 62.0922 36.1465 61.5379 36.6102 61.362ZM39.1282 68.4796C39.5755 68.2584 40.1018 68.4762 40.3037 68.9661C40.5404 69.5404 40.7845 70.1177 41.0358 70.6978C41.2461 71.1834 41.0571 71.7638 40.6137 71.9941C40.1703 72.2244 39.6404 72.0175 39.43 71.5319C39.1741 70.941 38.9254 70.3527 38.6839 69.767C38.482 69.2771 38.6809 68.7007 39.1282 68.4796ZM42.1838 75.3905C42.6163 75.1366 43.1549 75.3148 43.3868 75.7885C43.6616 76.3501 43.9424 76.9138 44.2289 77.4793C44.4671 77.9493 44.3122 78.5417 43.8831 78.8024C43.454 79.0632 42.9131 78.8936 42.675 78.4237C42.3843 77.85 42.0994 77.2781 41.8204 76.7079C41.5885 76.2342 41.7512 75.6444 42.1838 75.3905ZM45.6311 82.0943C46.0507 81.8155 46.5972 81.962 46.8517 82.4215C47.148 82.9563 47.4489 83.4924 47.7543 84.0297C48.0137 84.486 47.8862 85.0861 47.4695 85.3702C47.0529 85.6542 46.5049 85.5146 46.2456 85.0583C45.9366 84.5148 45.6321 83.9723 45.3323 83.431C45.0777 82.9715 45.2115 82.373 45.6311 82.0943ZM49.3598 88.5768C49.768 88.2784 50.3198 88.3988 50.5922 88.8458C50.9111 89.3688 51.2337 89.8926 51.5602 90.4171C51.8366 90.8612 51.7319 91.4666 51.3264 91.7693C50.9209 92.0721 50.3681 91.9574 50.0917 91.5133C49.7621 90.9837 49.4362 90.4548 49.1141 89.9265C48.8417 89.4795 48.9516 88.8752 49.3598 88.5768ZM53.3277 94.8908C53.7256 94.5762 54.2811 94.6745 54.5683 95.1102C54.9065 95.6233 55.248 96.1367 55.5926 96.6504C55.8831 97.0835 55.7981 97.6926 55.4026 98.0108C55.0071 98.329 54.4509 98.2359 54.1603 97.8028C53.8128 97.2848 53.4685 96.767 53.1274 96.2495C52.8401 95.8137 52.9298 95.2054 53.3277 94.8908ZM57.4966 101.055C57.8851 100.726 58.4431 100.805 58.7429 101.231C59.0973 101.734 59.4543 102.237 59.814 102.739C60.1167 103.162 60.0489 103.774 59.6625 104.106C59.2762 104.437 58.7177 104.363 58.415 103.94C58.0526 103.433 57.6929 102.926 57.3359 102.42C57.0361 101.994 57.108 101.383 57.4966 101.055ZM61.8367 107.078C62.2166 106.738 62.7764 106.8 63.0871 107.216C63.4552 107.708 63.8255 108.201 64.1981 108.693C64.5113 109.106 64.459 109.72 64.0813 110.063C63.7035 110.406 63.1433 110.349 62.83 109.935C62.455 109.44 62.0821 108.944 61.7115 108.448C61.4008 108.032 61.4568 107.419 61.8367 107.078ZM66.3268 112.97C66.6985 112.619 67.2596 112.665 67.5801 113.072C67.9601 113.554 68.342 114.036 68.7258 114.518C69.0486 114.922 69.0106 115.537 68.6409 115.891C68.2713 116.244 67.7099 116.202 67.3871 115.798C67.001 115.313 66.6166 114.828 66.2342 114.343C65.9137 113.936 65.9551 113.321 66.3268 112.97ZM70.9516 118.736C71.3154 118.375 71.8773 118.406 72.2067 118.804C72.5975 119.277 72.9898 119.748 73.3836 120.219C73.7151 120.615 73.6905 121.231 73.3287 121.594C72.9668 121.957 72.4047 121.93 72.0732 121.534C71.6771 121.06 71.2824 120.586 70.8893 120.11C70.5599 119.712 70.5878 119.097 70.9516 118.736ZM75.7001 124.38C76.0562 124.01 76.6186 124.026 76.9563 124.416C77.3569 124.879 77.7587 125.34 78.1616 125.8C78.5013 126.188 78.4896 126.804 78.1354 127.176C77.7813 127.548 77.2187 127.535 76.879 127.147C76.4738 126.685 76.0697 126.221 75.6668 125.755C75.3291 125.365 75.344 124.749 75.7001 124.38ZM154.258 128.684C154.64 128.346 155.199 128.412 155.508 128.83C155.694 129.083 155.878 129.335 156.061 129.586C156.366 130.007 156.303 130.619 155.919 130.954C155.535 131.288 154.976 131.219 154.67 130.798C154.49 130.55 154.308 130.302 154.124 130.052C153.816 129.634 153.876 129.021 154.258 128.684ZM80.5646 129.903C80.913 129.525 81.4757 129.527 81.8213 129.909C82.231 130.361 82.6416 130.812 83.053 131.261C83.4006 131.641 83.4014 132.257 83.0549 132.638C82.7084 133.018 82.1457 133.019 81.7982 132.64C81.3844 132.188 80.9715 131.734 80.5595 131.279C80.2139 130.898 80.2162 130.282 80.5646 129.903ZM157.971 133.899C158.368 133.583 158.924 133.678 159.213 134.112C159.556 134.628 159.892 135.14 160.22 135.65C160.503 136.089 160.407 136.696 160.006 137.006C159.605 137.316 159.051 137.211 158.768 136.772C158.445 136.271 158.115 135.766 157.777 135.259C157.488 134.824 157.575 134.216 157.971 133.899ZM85.5401 135.306C85.8808 134.92 86.4433 134.908 86.7966 135.281C87.2149 135.723 87.6339 136.163 88.0533 136.601C88.4085 136.972 88.4218 137.588 88.0831 137.977C87.7444 138.366 87.1819 138.381 86.8268 138.01C86.4049 137.569 85.9836 137.127 85.5629 136.682C85.2096 136.309 85.1994 135.693 85.5401 135.306ZM161.87 140.057C162.285 139.771 162.834 139.907 163.096 140.361C163.413 140.913 163.722 141.46 164.021 142.003C164.274 142.464 164.139 143.062 163.719 143.339C163.299 143.617 162.753 143.469 162.499 143.009C162.206 142.477 161.904 141.94 161.592 141.399C161.331 140.945 161.455 140.344 161.87 140.057ZM90.6238 140.586C90.9564 140.191 91.5186 140.166 91.8794 140.53C92.306 140.961 92.7329 141.389 93.1599 141.816C93.5226 142.178 93.5487 142.793 93.2182 143.19C92.8876 143.588 92.3256 143.616 91.9629 143.254C91.5333 142.825 91.1039 142.394 90.6749 141.961C90.314 141.597 90.2911 140.981 90.6238 140.586ZM95.8147 145.736C96.1388 145.333 96.7003 145.293 97.0688 145.648C97.5056 146.069 97.9423 146.487 98.3789 146.903C98.7494 147.255 98.7887 147.87 98.4669 148.275C98.145 148.681 97.5837 148.724 97.2133 148.372C96.774 147.954 96.3346 147.533 95.8951 147.11C95.5266 146.755 95.4906 146.14 95.8147 145.736ZM165.364 146.55C165.801 146.304 166.337 146.491 166.562 146.969C166.833 147.545 167.094 148.116 167.344 148.681C167.558 149.165 167.373 149.747 166.931 149.981C166.489 150.215 165.958 150.013 165.744 149.529C165.501 148.979 165.247 148.423 164.982 147.861C164.757 147.384 164.928 146.797 165.364 146.55ZM101.114 150.747C101.429 150.335 101.989 150.28 102.365 150.625C102.815 151.037 103.264 151.445 103.712 151.85C104.09 152.192 104.144 152.806 103.832 153.22C103.519 153.635 102.959 153.693 102.581 153.351C102.129 152.943 101.678 152.532 101.225 152.118C100.849 151.773 100.799 151.16 101.114 150.747ZM168.266 153.356C168.725 153.166 169.238 153.419 169.412 153.922C169.624 154.537 169.822 155.144 170.007 155.744C170.164 156.253 169.914 156.805 169.449 156.977C168.984 157.149 168.48 156.875 168.323 156.366C168.145 155.789 167.954 155.204 167.749 154.61C167.576 154.107 167.807 153.546 168.266 153.356ZM106.526 155.605C106.83 155.184 107.389 155.112 107.774 155.446C108.238 155.848 108.701 156.246 109.163 156.64C109.55 156.97 109.619 157.582 109.318 158.006C109.016 158.43 108.458 158.506 108.071 158.175C107.605 157.778 107.139 157.377 106.671 156.972C106.287 156.639 106.221 156.027 106.526 155.605ZM112.08 160.308C112.373 159.876 112.929 159.786 113.324 160.106C113.796 160.491 114.268 160.87 114.738 161.245C115.134 161.562 115.221 162.17 114.932 162.605C114.643 163.039 114.088 163.135 113.691 162.818C113.217 162.44 112.742 162.057 112.265 161.669C111.87 161.349 111.788 160.74 112.08 160.308ZM170.332 160.54C170.814 160.437 171.281 160.78 171.376 161.307C171.491 161.947 171.588 162.577 171.668 163.195C171.737 163.727 171.399 164.219 170.913 164.295C170.427 164.37 169.977 164 169.909 163.468C169.833 162.885 169.741 162.29 169.632 161.683C169.537 161.156 169.85 160.644 170.332 160.54ZM117.771 164.807C118.049 164.364 118.602 164.251 119.007 164.555C119.487 164.917 119.965 165.272 120.441 165.622C120.849 165.922 120.957 166.527 120.683 166.973C120.41 167.419 119.858 167.538 119.45 167.238C118.969 166.884 118.486 166.525 118.001 166.16C117.596 165.856 117.493 165.25 117.771 164.807ZM171.07 168C171.56 168.037 171.929 168.502 171.896 169.038C171.854 169.705 171.787 170.355 171.695 170.986C171.618 171.517 171.163 171.878 170.678 171.794C170.193 171.709 169.863 171.211 169.94 170.68C170.023 170.108 170.084 169.517 170.123 168.905C170.156 168.368 170.58 167.964 171.07 168ZM123.603 169.043C123.863 168.587 124.41 168.447 124.827 168.731C125.32 169.066 125.81 169.395 126.296 169.716C126.716 169.994 126.852 170.592 126.598 171.052C126.345 171.512 125.798 171.66 125.378 171.383C124.885 171.057 124.389 170.724 123.889 170.384C123.472 170.1 123.344 169.5 123.603 169.043ZM129.625 172.952C129.858 172.479 130.397 172.302 130.829 172.558C131.351 172.866 131.868 173.165 132.379 173.453C132.815 173.699 132.987 174.286 132.762 174.764C132.537 175.241 132.002 175.429 131.565 175.183C131.044 174.889 130.517 174.585 129.985 174.27C129.553 174.015 129.392 173.425 129.625 172.952ZM169.631 175.305C170.061 175.564 170.218 176.156 169.982 176.627C169.683 177.223 169.352 177.788 168.989 178.322C168.696 178.753 168.139 178.842 167.746 178.521C167.352 178.2 167.27 177.591 167.563 177.159C167.877 176.699 168.164 176.209 168.424 175.69C168.661 175.219 169.201 175.047 169.631 175.305ZM135.892 176.388C136.084 175.894 136.606 175.664 137.058 175.874C137.315 175.995 137.571 176.111 137.824 176.225L137.877 176.249L137.926 176.279C138.178 176.436 138.429 176.589 138.679 176.739C139.11 176.998 139.267 177.589 139.031 178.061C138.795 178.532 138.255 178.704 137.825 178.446C137.583 178.301 137.341 178.153 137.099 178.003C136.855 177.893 136.609 177.78 136.361 177.665C135.91 177.454 135.7 176.882 135.892 176.388ZM142.046 179.687C142.241 179.193 142.765 178.967 143.215 179.18C143.745 179.431 144.269 179.668 144.789 179.89C145.246 180.085 145.472 180.65 145.293 181.15C145.115 181.651 144.599 181.898 144.142 181.703C143.602 181.472 143.058 181.227 142.509 180.966C142.059 180.753 141.852 180.18 142.046 179.687ZM165.197 180.949C165.436 181.418 165.282 182.011 164.854 182.273C164.327 182.594 163.776 182.881 163.202 183.133C162.747 183.333 162.229 183.091 162.047 182.592C161.864 182.094 162.085 181.527 162.54 181.327C163.046 181.104 163.53 180.852 163.989 180.572C164.417 180.311 164.959 180.479 165.197 180.949ZM148.504 182.287C148.623 181.766 149.105 181.449 149.581 181.579C150.132 181.73 150.674 181.862 151.208 181.977C151.689 182.081 152.003 182.592 151.908 183.12C151.814 183.647 151.347 183.991 150.865 183.887C150.301 183.766 149.73 183.626 149.151 183.467C148.675 183.337 148.385 182.809 148.504 182.287ZM158.756 183.379C158.794 183.915 158.427 184.382 157.938 184.423C157.356 184.471 156.761 184.494 156.153 184.492C155.663 184.49 155.266 184.052 155.268 183.515C155.27 182.978 155.669 182.544 156.16 182.546C156.722 182.548 157.27 182.527 157.803 182.482C158.292 182.442 158.719 182.843 158.756 183.379Z" fill="#546FFF" fill-opacity="0.3"/>
<path fill-rule="evenodd" clip-rule="evenodd" d="M67.343 189.579C67.9637 189.617 68.5927 189.628 69.2287 189.614C69.7194 189.603 70.1091 189.159 70.0992 188.622C70.0893 188.084 69.6834 187.658 69.1928 187.668C68.5993 187.682 68.0155 187.671 67.4424 187.636C66.9524 187.606 66.533 188.017 66.5055 188.553C66.4781 189.09 66.853 189.549 67.343 189.579ZM73.7564 188.155C73.8511 188.683 74.3182 189.026 74.7998 188.922C75.4003 188.793 76.0042 188.647 76.6106 188.486C77.0875 188.359 77.3801 187.833 77.2643 187.31C77.1484 186.788 76.6679 186.468 76.191 186.594C75.6088 186.749 75.0305 186.889 74.4569 187.013C73.9754 187.116 73.6618 187.628 73.7564 188.155ZM62.899 187.784C63.0703 187.28 62.8364 186.72 62.3765 186.532C61.8404 186.313 61.3202 186.061 60.8172 185.774C60.3819 185.526 59.8453 185.712 59.6188 186.189C59.3922 186.665 59.5615 187.253 59.9969 187.501C60.5668 187.826 61.1538 188.11 61.756 188.356C62.2159 188.543 62.7276 188.287 62.899 187.784ZM80.7838 186.136C80.9496 186.642 81.4584 186.905 81.9203 186.724C82.4964 186.497 83.0727 186.26 83.6485 186.013C84.1054 185.817 84.3307 185.252 84.1517 184.752C83.9726 184.251 83.4571 184.005 83.0001 184.201C82.4396 184.441 81.8793 184.672 81.32 184.892C80.8581 185.073 80.618 185.63 80.7838 186.136ZM56.7536 183.681C57.1265 183.331 57.1702 182.717 56.8511 182.308C56.6654 182.071 56.4839 181.824 56.3066 181.568C56.1358 181.321 55.9726 181.069 55.817 180.812C55.5454 180.365 54.9939 180.243 54.5851 180.54C54.1764 180.838 54.0652 181.442 54.3367 181.89C54.5126 182.179 54.697 182.464 54.8901 182.743C55.0883 183.03 55.2919 183.306 55.5007 183.574C55.8197 183.982 56.3807 184.03 56.7536 183.681ZM87.5202 183.139C87.7323 183.623 88.2629 183.828 88.7055 183.596C89.2576 183.306 89.8073 183.01 90.3541 182.707C90.7921 182.464 90.9677 181.879 90.7463 181.399C90.525 180.92 89.9904 180.727 89.5524 180.97C89.0165 181.267 88.478 181.557 87.9376 181.841C87.495 182.073 87.3082 182.654 87.5202 183.139ZM93.9797 179.476C94.2257 179.941 94.7694 180.1 95.1941 179.83C95.725 179.493 96.2511 179.152 96.7715 178.809C97.1917 178.531 97.3269 177.933 97.0734 177.473C96.82 177.013 96.2738 176.864 95.8536 177.142C95.3419 177.48 94.8248 177.815 94.303 178.146C93.8784 178.416 93.7337 179.011 93.9797 179.476ZM53.1656 176.92C53.6421 176.791 53.9333 176.264 53.8159 175.742C53.6831 175.151 53.5748 174.544 53.4908 173.92C53.4192 173.388 52.9676 173.021 52.4821 173.099C51.9965 173.177 51.661 173.672 51.7326 174.204C51.8245 174.886 51.9434 175.554 52.0903 176.207C52.2076 176.729 52.6891 177.048 53.1656 176.92ZM100.177 175.302C100.452 175.748 101.004 175.865 101.411 175.565C101.923 175.186 102.427 174.806 102.922 174.428C103.324 174.119 103.422 173.513 103.14 173.072C102.859 172.632 102.305 172.525 101.903 172.833C101.417 173.205 100.921 173.579 100.417 173.951C100.01 174.252 99.9026 174.857 100.177 175.302ZM106.091 170.683C106.394 171.105 106.953 171.179 107.339 170.847C107.834 170.422 108.313 170.001 108.773 169.587C109.153 169.247 109.208 168.633 108.897 168.218C108.586 167.802 108.026 167.742 107.646 168.082C107.196 168.487 106.727 168.899 106.242 169.316C105.855 169.648 105.788 170.26 106.091 170.683ZM52.3949 169.157C52.8843 169.197 53.311 168.796 53.348 168.26C53.3912 167.633 53.4522 166.995 53.5307 166.346C53.5952 165.813 53.253 165.324 52.7665 165.253C52.28 165.183 51.8333 165.557 51.7689 166.09C51.6863 166.774 51.6217 167.448 51.5758 168.113C51.5388 168.649 51.9056 169.117 52.3949 169.157ZM111.658 165.535C112.004 165.917 112.566 165.919 112.915 165.54C113.139 165.296 113.353 165.057 113.556 164.824C113.895 164.436 113.882 163.82 113.527 163.449C113.172 163.077 112.609 163.092 112.27 163.481C112.079 163.7 111.876 163.926 111.662 164.159C111.314 164.538 111.312 165.154 111.658 165.535ZM53.4868 161.408C53.9609 161.547 54.4479 161.238 54.5746 160.719C54.7242 160.105 54.8862 159.485 55.0602 158.857C55.2028 158.343 54.9378 157.799 54.4682 157.643C53.9987 157.487 53.5024 157.777 53.3597 158.292C53.1801 158.939 53.0126 159.581 52.8575 160.217C52.7309 160.736 53.0126 161.269 53.4868 161.408ZM55.67 153.914C56.1263 154.112 56.6427 153.867 56.8235 153.368C57.0398 152.77 57.2653 152.168 57.4995 151.561C57.6907 151.066 57.4791 150.495 57.0271 150.285C56.5751 150.076 56.0537 150.308 55.8626 150.803C55.6233 151.423 55.3928 152.039 55.1714 152.651C54.9905 153.15 55.2138 153.716 55.67 153.914ZM58.5318 146.695C58.9722 146.932 59.5047 146.733 59.7213 146.251C59.9771 145.681 60.2396 145.108 60.5086 144.533C60.7321 144.054 60.5592 143.468 60.1223 143.223C59.6854 142.978 59.15 143.168 58.9265 143.646C58.6533 144.231 58.3866 144.813 58.1265 145.392C57.9099 145.874 58.0914 146.457 58.5318 146.695ZM61.838 139.745C62.265 140.01 62.8072 139.845 63.0491 139.378C63.3394 138.816 63.6351 138.253 63.9361 137.687C64.1832 137.223 64.0399 136.627 63.6159 136.357C63.1919 136.086 62.6479 136.243 62.4007 136.707C62.0961 137.28 61.7968 137.85 61.5028 138.418C61.2609 138.886 61.4109 139.48 61.838 139.745ZM65.4848 132.981C65.9003 133.267 66.4488 133.13 66.7099 132.674C67.026 132.123 67.3465 131.571 67.6713 131.017C67.9365 130.565 67.8167 129.963 67.4037 129.672C66.9908 129.382 66.4411 129.513 66.1759 129.965C65.848 130.525 65.5243 131.083 65.205 131.639C64.944 132.094 65.0692 132.695 65.4848 132.981ZM69.3907 126.386C69.7964 126.688 70.3491 126.574 70.6254 126.129C70.9613 125.589 71.3009 125.048 71.6439 124.506C71.9235 124.064 71.8232 123.458 71.4199 123.152C71.0166 122.846 70.463 122.956 70.1834 123.397C69.8376 123.944 69.4952 124.489 69.1565 125.034C68.8802 125.478 68.9851 126.083 69.3907 126.386ZM73.503 119.942C73.8999 120.258 74.4557 120.162 74.7444 119.728C75.0961 119.198 75.4507 118.669 75.8082 118.138C76.0998 117.706 76.0161 117.097 75.6213 116.777C75.2265 116.458 74.6701 116.55 74.3786 116.982C74.0186 117.516 73.6615 118.05 73.3073 118.583C73.0185 119.017 73.1062 119.626 73.503 119.942ZM77.7861 113.634C78.175 113.962 78.7329 113.882 79.0322 113.456C79.3968 112.937 79.7639 112.418 80.1333 111.899C80.435 111.475 80.3658 110.864 79.9787 110.533C79.5916 110.203 79.0333 110.279 78.7316 110.703C78.3599 111.225 77.9906 111.747 77.6237 112.269C77.3244 112.695 77.3971 113.306 77.7861 113.634ZM82.2151 107.449C82.5968 107.786 83.1563 107.721 83.4648 107.303C83.8404 106.794 84.2179 106.286 84.5974 105.777C84.908 105.361 84.8518 104.748 84.4718 104.408C84.0918 104.068 83.532 104.129 83.2214 104.545C82.8399 105.057 82.4602 105.568 82.0825 106.08C81.774 106.498 81.8334 107.111 82.2151 107.449ZM86.7725 101.376C87.1474 101.723 87.708 101.671 88.0247 101.261C88.41 100.761 88.7968 100.262 89.1851 99.764C89.5037 99.3552 89.4593 98.7409 89.086 98.392C88.7127 98.0431 88.1518 98.0917 87.8333 98.5005C87.443 99.0013 87.0542 99.5029 86.6669 100.005C86.3503 100.416 86.3975 101.03 86.7725 101.376ZM91.4454 95.4103C91.8139 95.7652 92.3753 95.7258 92.6995 95.3222C93.0935 94.8316 93.4887 94.3419 93.885 93.8533C94.2109 93.4514 94.1776 92.8364 93.8107 92.4795C93.4437 92.1226 92.8821 92.159 92.5562 92.5608C92.158 93.0518 91.7609 93.5438 91.365 94.0368C91.0409 94.4404 91.0769 95.0553 91.4454 95.4103ZM157.302 93.1534C157.651 93.5313 158.214 93.5279 158.559 93.1458C158.764 92.9185 158.968 92.6914 159.17 92.4645C159.512 92.0796 159.505 91.4634 159.153 91.0883C158.802 90.7133 158.239 90.7212 157.897 91.1062C157.698 91.3296 157.497 91.5533 157.295 91.7772C156.95 92.1593 156.953 92.7755 157.302 93.1534ZM96.2245 89.5456C96.5867 89.9082 97.1488 89.8805 97.4799 89.4837C97.8821 89.0018 98.2851 88.521 98.6888 88.0417C99.0215 87.6467 98.9988 87.031 98.6381 86.6666C98.2774 86.3022 97.7152 86.327 97.3825 86.7221C96.9769 87.2036 96.572 87.6866 96.168 88.1707C95.8369 88.5675 95.8622 89.183 96.2245 89.5456ZM161.421 88.4212C161.788 88.7779 162.35 88.7412 162.676 88.3391C163.056 87.87 163.428 87.4021 163.794 86.9355C164.114 86.5276 164.071 85.9132 163.698 85.5632C163.326 85.2133 162.765 85.2602 162.445 85.6681C162.086 86.1265 161.72 86.5863 161.346 87.0474C161.02 87.4494 161.054 88.0645 161.421 88.4212ZM101.103 83.78C101.459 84.1498 102.022 84.1335 102.36 83.7435C102.769 83.27 103.18 82.7982 103.591 82.328C103.93 81.9397 103.918 81.3237 103.563 80.9521C103.208 80.5806 102.646 80.5941 102.307 80.9824C101.894 81.4547 101.482 81.9286 101.07 82.4043C100.732 82.7943 100.747 83.4102 101.103 83.78ZM165.796 82.7375C166.185 83.0647 166.743 82.9842 167.042 82.5578C167.395 82.0539 167.739 81.5519 168.075 81.0517C168.366 80.6189 168.282 80.0097 167.886 79.6911C167.491 79.3725 166.935 79.4651 166.644 79.898C166.315 80.3876 165.978 80.8794 165.632 81.3731C165.333 81.7995 165.407 82.4104 165.796 82.7375ZM106.078 78.1132C106.428 78.4901 106.99 78.4849 107.334 78.1018C107.752 77.6369 108.169 77.1741 108.587 76.7134C108.932 76.332 108.93 75.7158 108.582 75.3372C108.234 74.9586 107.671 74.9609 107.325 75.3424C106.906 75.8052 106.487 76.2701 106.067 76.737C105.723 77.1202 105.728 77.7364 106.078 78.1132ZM169.766 76.7028C170.179 76.9924 170.728 76.8602 170.993 76.4075C171.307 75.8697 171.611 75.3345 171.906 74.8021C172.161 74.3425 172.027 73.744 171.607 73.4654C171.187 73.1868 170.641 73.3335 170.386 73.7931C170.099 74.3119 169.802 74.8338 169.496 75.3586C169.231 75.8113 169.352 76.4131 169.766 76.7028ZM111.146 72.5473C111.489 72.9312 112.052 72.9375 112.402 72.5613C112.827 72.1056 113.251 71.6524 113.675 71.2017C114.027 70.8274 114.036 70.2113 113.694 69.8256C113.352 69.44 112.79 69.4308 112.437 69.8052C112.011 70.258 111.585 70.7133 111.158 71.1711C110.808 71.5473 110.802 72.1634 111.146 72.5473ZM173.217 70.2865C173.656 70.5272 174.19 70.3328 174.41 69.8523C174.669 69.2839 174.918 68.7193 175.156 68.1588C175.362 67.6712 175.169 67.0926 174.723 66.8664C174.278 66.6403 173.75 66.8522 173.543 67.3397C173.314 67.8823 173.073 68.4293 172.82 68.9806C172.601 69.4611 172.778 70.0458 173.217 70.2865ZM116.307 67.0873C116.644 67.4784 117.206 67.4965 117.564 67.1279C117.995 66.6823 118.426 66.2398 118.856 65.8003C119.215 65.4336 119.234 64.8178 118.899 64.4249C118.564 64.032 118.002 64.0108 117.643 64.3775C117.211 64.8192 116.778 65.2639 116.344 65.7116C115.987 66.0803 115.971 66.6962 116.307 67.0873ZM175.974 63.4901C176.438 63.6647 176.944 63.3943 177.103 62.886C177.294 62.2766 177.472 61.6731 177.635 61.0758C177.776 60.561 177.51 60.0185 177.04 59.864C176.569 59.7096 176.074 60.0018 175.933 60.5165C175.776 61.0888 175.606 61.6678 175.422 62.2534C175.263 62.7617 175.51 63.3154 175.974 63.4901ZM121.564 61.7426C121.894 62.1413 122.456 62.1723 122.82 61.8118C123.26 61.3759 123.699 60.9436 124.136 60.5152C124.502 60.1569 124.534 59.5417 124.206 59.1411C123.879 58.7404 123.317 58.7061 122.952 59.0643C122.512 59.4952 122.07 59.9299 121.628 60.3681C121.264 60.7286 121.235 61.344 121.564 61.7426ZM126.92 56.5298C127.24 56.9367 127.802 56.9821 128.173 56.631C128.63 56.1995 129.085 55.7726 129.537 55.3507C129.911 55.0022 129.956 54.3881 129.638 53.9789C129.32 53.5696 128.759 53.5204 128.385 53.8688C127.93 54.2935 127.472 54.723 127.012 55.1573C126.641 55.5083 126.599 56.1228 126.92 56.5298ZM177.784 56.3205C178.27 56.4021 178.723 56.0376 178.798 55.5064C178.888 54.8655 178.96 54.2339 179.016 53.612C179.064 53.0771 178.707 52.601 178.218 52.5485C177.73 52.4961 177.295 52.8872 177.247 53.4221C177.195 54.0078 177.126 54.6042 177.041 55.2109C176.967 55.7421 177.299 56.2389 177.784 56.3205ZM132.396 51.4596C132.706 51.8761 133.266 51.9383 133.646 51.5986C134.12 51.175 134.591 50.7575 135.059 50.3464C135.442 50.0101 135.503 49.3976 135.196 48.9784C134.889 48.5592 134.329 48.4921 133.947 48.8284C133.475 49.2429 133 49.6636 132.522 50.0904C132.142 50.4301 132.085 51.0432 132.396 51.4596ZM178.237 48.912C178.725 48.8576 179.081 48.3801 179.031 47.8454C178.97 47.1894 178.887 46.5488 178.782 45.9246C178.693 45.396 178.23 45.0464 177.747 45.1437C177.265 45.241 176.945 45.7484 177.034 46.2769C177.13 46.8482 177.207 47.4368 177.263 48.0423C177.313 48.577 177.749 48.9664 178.237 48.912ZM138.037 46.5463C138.334 46.9744 138.891 47.0581 139.282 46.7332C139.761 46.3351 140.235 45.9451 140.705 45.5632C141.099 45.2428 141.181 44.6332 140.889 44.2017C140.596 43.7702 140.039 43.6802 139.645 44.0006C139.171 44.3866 138.691 44.7808 138.208 45.1828C137.817 45.5077 137.74 46.1182 138.037 46.5463ZM143.814 41.9096C144.091 42.3531 144.644 42.4665 145.049 42.1629C145.548 41.7888 146.04 41.4264 146.524 41.076C146.933 40.7795 147.045 40.1758 146.775 39.7275C146.504 39.2792 145.953 39.1561 145.543 39.4525C145.051 39.809 144.552 40.1772 144.045 40.5569C143.64 40.8605 143.537 41.4661 143.814 41.9096ZM176.706 41.6918C177.142 41.4448 177.312 40.8576 177.087 40.3803C176.807 39.7885 176.5 39.2225 176.167 38.6839C175.892 38.2387 175.34 38.1219 174.934 38.423C174.527 38.7241 174.42 39.3291 174.695 39.7743C174.988 40.2486 175.26 40.7491 175.508 41.275C175.734 41.7523 176.27 41.9389 176.706 41.6918ZM149.861 37.6306C150.104 38.0976 150.647 38.2605 151.073 37.9945C151.588 37.6736 152.089 37.3717 152.577 37.0891C153.01 36.8376 153.176 36.2487 152.946 35.7737C152.717 35.2987 152.179 35.1174 151.745 35.3689C151.24 35.6616 150.723 35.9733 150.194 36.3033C149.767 36.5694 149.619 37.1636 149.861 37.6306ZM172.59 35.8491C172.863 35.4023 172.753 34.7979 172.346 34.4991C171.845 34.1324 171.321 33.8006 170.775 33.5048C170.335 33.2664 169.802 33.4637 169.585 33.9454C169.367 34.4271 169.547 35.0108 169.987 35.2492C170.464 35.5078 170.921 35.7975 171.357 36.1169C171.765 36.4157 172.317 36.2958 172.59 35.8491ZM156.28 34.141C156.43 34.6528 156.93 34.9345 157.397 34.7703C157.659 34.6785 157.911 34.5972 158.155 34.5265C158.426 34.4475 158.696 34.3745 158.963 34.3072C159.442 34.187 159.74 33.6648 159.631 33.141C159.521 32.6172 159.044 32.29 158.566 32.4103C158.279 32.4825 157.99 32.5608 157.699 32.6453C157.424 32.7252 157.142 32.8159 156.854 32.9171C156.387 33.0813 156.13 33.6293 156.28 34.141ZM166.385 32.9557C166.44 32.4216 166.088 31.9404 165.6 31.8811C165.02 31.8103 164.426 31.7704 163.819 31.7617C163.329 31.7546 162.926 32.1846 162.919 32.722C162.913 33.2594 163.305 33.7007 163.796 33.7078C164.346 33.7157 164.882 33.7519 165.404 33.8154C165.892 33.8748 166.331 33.4899 166.385 32.9557Z" fill="#546FFF" fill-opacity="0.3"/>
<g filter="url(#filter0_d_207_4967)">
<path d="M20.1934 44.5168C20.1934 40.7213 23.0029 37.6444 26.4687 37.6444H50.3507C53.8164 37.6444 56.626 40.7213 56.626 44.5168V70.6712C56.626 74.4667 53.8164 77.5436 50.3507 77.5436H26.4687C23.0029 77.5436 20.1934 74.4667 20.1934 70.6712V44.5168Z" fill="white"/>
</g>
<path d="M44.5564 59.8645V52.7281C44.5564 51.7468 43.8233 50.944 42.9273 50.944H31.5236C30.6276 50.944 29.8945 51.7468 29.8945 52.7281V59.8645C29.8945 60.8458 30.6276 61.6486 31.5236 61.6486H42.9273C43.8233 61.6486 44.5564 60.8458 44.5564 59.8645ZM37.2255 58.9725C35.8733 58.9725 34.7818 57.7771 34.7818 56.2963C34.7818 54.8155 35.8733 53.6201 37.2255 53.6201C38.5776 53.6201 39.6691 54.8155 39.6691 56.2963C39.6691 57.7771 38.5776 58.9725 37.2255 58.9725ZM47.0001 53.6201C47.45 53.6201 47.8146 54.0195 47.8146 54.5122V63.4327C47.8146 64.414 47.0815 65.2168 46.1855 65.2168H33.1527C32.7029 65.2168 32.3382 64.8175 32.3382 64.3248C32.3382 63.8321 32.7029 63.4327 33.1527 63.4327H46.1855V54.5122C46.1855 54.0195 46.5502 53.6201 47.0001 53.6201Z" fill="#B2BEFF"/>
<g filter="url(#filter1_d_207_4967)">
<path d="M134.822 14.6698C134.822 10.8743 137.632 7.79742 141.098 7.79742H164.98C168.445 7.79742 171.255 10.8743 171.255 14.6698V40.8242C171.255 44.6197 168.445 47.6966 164.98 47.6966H141.098C137.632 47.6966 134.822 44.6197 134.822 40.8242V14.6698Z" fill="white"/>
</g>
<g clip-path="url(#clip1_207_4967)">
<path d="M149.41 33.789C148.514 33.789 147.789 34.5232 147.789 35.4206C147.789 36.3179 148.514 37.0521 149.41 37.0521C150.306 37.0521 151.039 36.3179 151.039 35.4206C151.039 34.5232 150.306 33.789 149.41 33.789ZM144.522 20.7369V22.3684H146.152L149.084 28.56L147.984 30.5586C147.854 30.787 147.781 31.0563 147.781 31.3418C147.781 32.2391 148.514 32.9733 149.41 32.9733H159.184V31.3418H149.752C149.638 31.3418 149.548 31.252 149.548 31.1378L149.573 31.0399L150.306 29.7102H156.374C156.985 29.7102 157.523 29.3758 157.8 28.87L160.716 23.5757C160.781 23.4615 160.813 23.3228 160.813 23.1842C160.813 22.7355 160.447 22.3684 159.999 22.3684H147.952L147.186 20.7369H144.522ZM157.555 33.789C156.659 33.789 155.934 34.5232 155.934 35.4206C155.934 36.3179 156.659 37.0521 157.555 37.0521C158.451 37.0521 159.184 36.3179 159.184 35.4206C159.184 34.5232 158.451 33.789 157.555 33.789Z" fill="#E6E4FF"/>
</g>
<g filter="url(#filter2_d_207_4967)">
<path d="M43.2959 168.107C43.2959 164.311 46.1055 161.234 49.5712 161.234H73.4532C76.919 161.234 79.7285 164.311 79.7285 168.107V194.261C79.7285 198.057 76.919 201.134 73.4532 201.134H49.5712C46.1055 201.134 43.2959 198.057 43.2959 194.261V168.107Z" fill="white"/>
</g>
<path d="M67.7718 184.091C67.8044 183.846 67.8207 183.593 67.8207 183.324C67.8207 183.063 67.8044 182.802 67.7636 182.557L69.4172 181.268C69.5638 181.154 69.6045 180.934 69.5149 180.77L67.951 178.062C67.8532 177.883 67.6496 177.826 67.4704 177.883L65.5236 178.666C65.1163 178.356 64.6846 178.095 64.204 177.899L63.9108 175.827C63.8782 175.631 63.7153 175.492 63.5198 175.492H60.3919C60.1965 175.492 60.0417 175.631 60.0091 175.827L59.7159 177.899C59.2353 178.095 58.7954 178.364 58.3963 178.666L56.4495 177.883C56.2703 177.817 56.0667 177.883 55.9689 178.062L54.4131 180.77C54.3154 180.942 54.348 181.154 54.5109 181.268L56.1644 182.557C56.1237 182.802 56.0911 183.071 56.0911 183.324C56.0911 183.577 56.1074 183.846 56.1481 184.091L54.4946 185.379C54.348 185.494 54.3073 185.714 54.3969 185.877L55.9608 188.585C56.0585 188.765 56.2622 188.822 56.4414 188.765L58.3882 187.982C58.7954 188.292 59.2271 188.553 59.7077 188.749L60.001 190.821C60.0417 191.016 60.1965 191.155 60.3919 191.155H63.5198C63.7153 191.155 63.8782 191.016 63.9027 190.821L64.1959 188.749C64.6765 188.553 65.1163 188.292 65.5155 187.982L67.4622 188.765C67.6414 188.83 67.8451 188.765 67.9428 188.585L69.5068 185.877C69.6045 185.698 69.5638 185.494 69.409 185.379L67.7718 184.091ZM61.9559 186.261C60.3431 186.261 59.0235 184.939 59.0235 183.324C59.0235 181.709 60.3431 180.387 61.9559 180.387C63.5687 180.387 64.8883 181.709 64.8883 183.324C64.8883 184.939 63.5687 186.261 61.9559 186.261Z" fill="#E8F3FF"/>
<defs>
<filter id="filter0_d_207_4967" x="0.193359" y="21.6444" width="76.4326" height="79.8992" filterUnits="userSpaceOnUse" color-interpolation-filters="sRGB">
<feFlood flood-opacity="0" result="BackgroundImageFix"/>
<feColorMatrix in="SourceAlpha" type="matrix" values="0 0 0 0 0 0 0 0 0 0 0 0 0 0 0 0 0 0 127 0" result="hardAlpha"/>
<feOffset dy="4"/>
<feGaussianBlur stdDeviation="10"/>
<feComposite in2="hardAlpha" operator="out"/>
<feColorMatrix type="matrix" values="0 0 0 0 0.243137 0 0 0 0 0.294118 0 0 0 0 0.580392 0 0 0 0.1 0"/>
<feBlend mode="normal" in2="BackgroundImageFix" result="effect1_dropShadow_207_4967"/>
<feBlend mode="normal" in="SourceGraphic" in2="effect1_dropShadow_207_4967" result="shape"/>
</filter>
<filter id="filter1_d_207_4967" x="114.822" y="-8.20258" width="76.4326" height="79.8992" filterUnits="userSpaceOnUse" color-interpolation-filters="sRGB">
<feFlood flood-opacity="0" result="BackgroundImageFix"/>
<feColorMatrix in="SourceAlpha" type="matrix" values="0 0 0 0 0 0 0 0 0 0 0 0 0 0 0 0 0 0 127 0" result="hardAlpha"/>
<feOffset dy="4"/>
<feGaussianBlur stdDeviation="10"/>
<feComposite in2="hardAlpha" operator="out"/>
<feColorMatrix type="matrix" values="0 0 0 0 0.243137 0 0 0 0 0.294118 0 0 0 0 0.580392 0 0 0 0.1 0"/>
<feBlend mode="normal" in2="BackgroundImageFix" result="effect1_dropShadow_207_4967"/>
<feBlend mode="normal" in="SourceGraphic" in2="effect1_dropShadow_207_4967" result="shape"/>
</filter>
<filter id="filter2_d_207_4967" x="23.2959" y="145.234" width="76.4326" height="79.8992" filterUnits="userSpaceOnUse" color-interpolation-filters="sRGB">
<feFlood flood-opacity="0" result="BackgroundImageFix"/>
<feColorMatrix in="SourceAlpha" type="matrix" values="0 0 0 0 0 0 0 0 0 0 0 0 0 0 0 0 0 0 127 0" result="hardAlpha"/>
<feOffset dy="4"/>
<feGaussianBlur stdDeviation="10"/>
<feComposite in2="hardAlpha" operator="out"/>
<feColorMatrix type="matrix" values="0 0 0 0 0.243137 0 0 0 0 0.294118 0 0 0 0 0.580392 0 0 0 0.1 0"/>
<feBlend mode="normal" in2="BackgroundImageFix" result="effect1_dropShadow_207_4967"/>
<feBlend mode="normal" in="SourceGraphic" in2="effect1_dropShadow_207_4967" result="shape"/>
</filter>
<linearGradient id="paint0_linear_207_4967" x1="104.449" y1="64.8688" x2="104.449" y2="165.348" gradientUnits="userSpaceOnUse">
<stop stop-color="#94A4FA"/>
<stop offset="1" stop-color="#94A4FA" stop-opacity="0"/>
</linearGradient>
<clipPath id="clip0_207_4967">
<rect width="103.078" height="112.885" fill="white" transform="translate(56.626 50.2953)"/>
</clipPath>
<clipPath id="clip1_207_4967">
<rect width="19.5492" height="21.4093" fill="white" transform="translate(143.708 17.529)"/>
</clipPath>
</defs>
</svg>
